<svg width="500" height="275" viewBox="0 0 500 275" fill="none" xmlns="http://www.w3.org/2000/svg">
<path d="M19.6239 245.253C19.7221 245.253 19.8007 245.293 19.8597 245.371C19.9383 245.43 19.9776 245.509 19.9776 245.607V247.876C19.9776 247.975 19.9383 248.063 19.8597 248.142C19.8007 248.201 19.7221 248.23 19.6239 248.23H14.2009C14.1027 248.23 14.0535 248.279 14.0535 248.377V265.531C14.0535 265.629 14.0143 265.717 13.9357 265.796C13.8767 265.855 13.7981 265.884 13.6999 265.884H10.9884C10.8901 265.884 10.8017 265.855 10.7231 265.796C10.6642 265.717 10.6347 265.629 10.6347 265.531V248.377C10.6347 248.279 10.5856 248.23 10.4873 248.23H5.27067C5.17242 248.23 5.084 248.201 5.00541 248.142C4.94646 248.063 4.91699 247.975 4.91699 247.876V245.607C4.91699 245.509 4.94646 245.43 5.00541 245.371C5.084 245.293 5.17242 245.253 5.27067 245.253H19.6239Z" fill="#404040"/>
<path d="M34.7169 265.884C34.5205 265.884 34.3829 265.796 34.3043 265.619L30.4139 257.131C30.3746 257.052 30.3157 257.013 30.2371 257.013H26.7004C26.6021 257.013 26.553 257.062 26.553 257.16V265.531C26.553 265.629 26.5137 265.717 26.4351 265.796C26.3762 265.855 26.2976 265.884 26.1993 265.884H23.4878C23.3896 265.884 23.3012 265.855 23.2226 265.796C23.1636 265.717 23.1342 265.629 23.1342 265.531V245.607C23.1342 245.509 23.1636 245.43 23.2226 245.371C23.3012 245.293 23.3896 245.253 23.4878 245.253H31.5928C32.7914 245.253 33.8524 245.509 34.7759 246.02C35.6994 246.511 36.4165 247.218 36.9274 248.142C37.4383 249.045 37.6937 250.087 37.6937 251.266C37.6937 252.621 37.34 253.781 36.6327 254.743C35.945 255.687 34.9822 256.345 33.7443 256.718C33.705 256.718 33.6756 256.738 33.6559 256.777C33.6363 256.816 33.6363 256.856 33.6559 256.895L37.8116 265.472C37.8509 265.55 37.8705 265.609 37.8705 265.648C37.8705 265.806 37.7625 265.884 37.5463 265.884H34.7169ZM26.7004 248.201C26.6021 248.201 26.553 248.25 26.553 248.348V254.213C26.553 254.311 26.6021 254.36 26.7004 254.36H31.1213C32.0644 254.36 32.8209 254.085 33.3907 253.535C33.9801 252.965 34.2749 252.219 34.2749 251.295C34.2749 250.372 33.9801 249.625 33.3907 249.055C32.8209 248.485 32.0644 248.201 31.1213 248.201H26.7004Z" fill="#404040"/>
<path d="M54.6912 265.884C54.4947 265.884 54.367 265.786 54.308 265.589L53.3354 262.436C53.2961 262.357 53.247 262.318 53.1881 262.318H45.4073C45.3483 262.318 45.2992 262.357 45.2599 262.436L44.2873 265.589C44.2284 265.786 44.1006 265.884 43.9042 265.884H40.9569C40.839 265.884 40.7506 265.855 40.6916 265.796C40.6327 265.717 40.6229 265.609 40.6622 265.472L47.0577 245.548C47.1167 245.352 47.2444 245.253 47.4409 245.253H51.125C51.3215 245.253 51.4492 245.352 51.5081 245.548L57.9332 265.472C57.9528 265.511 57.9627 265.56 57.9627 265.619C57.9627 265.796 57.8546 265.884 57.6385 265.884H54.6912ZM46.1736 259.459C46.1539 259.577 46.1932 259.636 46.2915 259.636H52.2744C52.3923 259.636 52.4316 259.577 52.3923 259.459L49.3566 249.586C49.337 249.507 49.3075 249.468 49.2682 249.468C49.2289 249.468 49.1994 249.507 49.1798 249.586L46.1736 259.459Z" fill="#404040"/>
<path d="M73.0067 245.607C73.0067 245.509 73.0361 245.43 73.0951 245.371C73.1737 245.293 73.2621 245.253 73.3603 245.253H76.0718C76.1701 245.253 76.2487 245.293 76.3076 245.371C76.3862 245.43 76.4255 245.509 76.4255 245.607V265.531C76.4255 265.629 76.3862 265.717 76.3076 265.796C76.2487 265.855 76.1701 265.884 76.0718 265.884H73.4488C73.2523 265.884 73.1147 265.806 73.0361 265.648L64.548 251.737C64.5087 251.678 64.4694 251.659 64.4301 251.678C64.3908 251.678 64.3711 251.718 64.3711 251.796L64.4301 265.531C64.4301 265.629 64.3908 265.717 64.3122 265.796C64.2533 265.855 64.1747 265.884 64.0764 265.884H61.3649C61.2667 265.884 61.1783 265.855 61.0997 265.796C61.0407 265.717 61.0113 265.629 61.0113 265.531V245.607C61.0113 245.509 61.0407 245.43 61.0997 245.371C61.1783 245.293 61.2667 245.253 61.3649 245.253H63.988C64.1845 245.253 64.322 245.332 64.4006 245.489L72.8593 259.4C72.8986 259.459 72.9379 259.489 72.9772 259.489C73.0165 259.469 73.0361 259.42 73.0361 259.341L73.0067 245.607Z" fill="#404040"/>
<path d="M87.6235 266.12C86.1499 266.12 84.8531 265.835 83.7331 265.265C82.6132 264.676 81.7486 263.851 81.1395 262.79C80.5304 261.729 80.2259 260.51 80.2259 259.135V252.003C80.2259 250.607 80.5304 249.389 81.1395 248.348C81.7486 247.287 82.6132 246.471 83.7331 245.902C84.8531 245.312 86.1499 245.017 87.6235 245.017C89.0775 245.017 90.3547 245.302 91.455 245.872C92.575 246.442 93.4395 247.218 94.0486 248.201C94.6577 249.183 94.9623 250.293 94.9623 251.531V251.767C94.9623 251.865 94.923 251.953 94.8444 252.032C94.7854 252.091 94.7068 252.12 94.6086 252.12H91.9266C91.8283 252.12 91.7399 252.091 91.6613 252.032C91.6024 251.953 91.5729 251.865 91.5729 251.767V251.619C91.5729 250.558 91.2094 249.684 90.4824 248.996C89.7751 248.309 88.8221 247.965 87.6235 247.965C86.425 247.965 85.4622 248.328 84.7352 249.055C84.0082 249.763 83.6447 250.706 83.6447 251.885V259.253C83.6447 260.432 84.0279 261.385 84.7942 262.112C85.5604 262.819 86.5527 263.173 87.7709 263.173C88.9498 263.173 89.8733 262.868 90.5414 262.259C91.229 261.63 91.5729 260.776 91.5729 259.695V257.868C91.5729 257.769 91.5238 257.72 91.4255 257.72H87.8004C87.7021 257.72 87.6137 257.691 87.5351 257.632C87.4762 257.553 87.4467 257.465 87.4467 257.367V255.186C87.4467 255.087 87.4762 255.009 87.5351 254.95C87.6137 254.871 87.7021 254.832 87.8004 254.832H94.6086C94.7068 254.832 94.7854 254.871 94.8444 254.95C94.923 255.009 94.9623 255.087 94.9623 255.186V258.958C94.9623 261.218 94.2942 262.976 92.9581 264.234C91.6417 265.491 89.8635 266.12 87.6235 266.12Z" fill="#404040"/>
<path d="M118.26 245.253C118.358 245.253 118.437 245.293 118.496 245.371C118.574 245.43 118.613 245.509 118.613 245.607V247.876C118.613 247.975 118.574 248.063 118.496 248.142C118.437 248.201 118.358 248.23 118.26 248.23H112.837C112.739 248.23 112.689 248.279 112.689 248.377V265.531C112.689 265.629 112.65 265.717 112.572 265.796C112.513 265.855 112.434 265.884 112.336 265.884H109.624C109.526 265.884 109.438 265.855 109.359 265.796C109.3 265.717 109.271 265.629 109.271 265.531V248.377C109.271 248.279 109.221 248.23 109.123 248.23H103.907C103.808 248.23 103.72 248.201 103.641 248.142C103.582 248.063 103.553 247.975 103.553 247.876V245.607C103.553 245.509 103.582 245.43 103.641 245.371C103.72 245.293 103.808 245.253 103.907 245.253H118.26Z" fill="#404040"/>
<path d="M132.999 245.607C132.999 245.509 133.029 245.43 133.088 245.371C133.166 245.293 133.255 245.253 133.353 245.253H136.064C136.163 245.253 136.241 245.293 136.3 245.371C136.379 245.43 136.418 245.509 136.418 245.607V265.531C136.418 265.629 136.379 265.717 136.3 265.796C136.241 265.855 136.163 265.884 136.064 265.884H133.353C133.255 265.884 133.166 265.855 133.088 265.796C133.029 265.717 132.999 265.629 132.999 265.531V257.101C132.999 257.003 132.95 256.954 132.852 256.954H125.336C125.238 256.954 125.189 257.003 125.189 257.101V265.531C125.189 265.629 125.15 265.717 125.071 265.796C125.012 265.855 124.933 265.884 124.835 265.884H122.124C122.025 265.884 121.937 265.855 121.858 265.796C121.8 265.717 121.77 265.629 121.77 265.531V245.607C121.77 245.509 121.8 245.43 121.858 245.371C121.937 245.293 122.025 245.253 122.124 245.253H124.835C124.933 245.253 125.012 245.293 125.071 245.371C125.15 245.43 125.189 245.509 125.189 245.607V253.859C125.189 253.958 125.238 254.007 125.336 254.007H132.852C132.95 254.007 132.999 253.958 132.999 253.859V245.607Z" fill="#404040"/>
<path d="M147.521 266.179C146.047 266.179 144.741 265.884 143.601 265.295C142.461 264.686 141.577 263.831 140.949 262.731C140.339 261.63 140.035 260.363 140.035 258.929V252.209C140.035 250.794 140.349 249.546 140.978 248.466C141.607 247.365 142.481 246.521 143.601 245.931C144.741 245.322 146.047 245.017 147.521 245.017C149.014 245.017 150.321 245.322 151.441 245.931C152.58 246.521 153.465 247.365 154.093 248.466C154.722 249.546 155.036 250.794 155.036 252.209V258.929C155.036 260.363 154.722 261.63 154.093 262.731C153.465 263.831 152.58 264.686 151.441 265.295C150.321 265.884 149.014 266.179 147.521 266.179ZM147.521 263.232C148.759 263.232 149.751 262.848 150.498 262.082C151.244 261.316 151.618 260.304 151.618 259.047V252.179C151.618 250.902 151.244 249.88 150.498 249.114C149.751 248.348 148.759 247.965 147.521 247.965C146.303 247.965 145.32 248.348 144.574 249.114C143.827 249.88 143.454 250.902 143.454 252.179V259.047C143.454 260.304 143.827 261.316 144.574 262.082C145.32 262.848 146.303 263.232 147.521 263.232ZM143.513 243.426C143.355 243.426 143.257 243.387 143.218 243.308C143.179 243.21 143.198 243.102 143.277 242.984L145.517 239.889C145.615 239.752 145.753 239.683 145.929 239.683H149.024C149.201 239.683 149.338 239.752 149.437 239.889L151.677 242.984C151.736 243.062 151.765 243.141 151.765 243.22C151.765 243.357 151.667 243.426 151.47 243.426H149.407C149.23 243.426 149.093 243.347 148.995 243.19L147.609 241.215C147.57 241.176 147.531 241.157 147.491 241.157C147.452 241.157 147.423 241.176 147.403 241.215L146.018 243.19C145.92 243.347 145.782 243.426 145.605 243.426H143.513Z" fill="#404040"/>
<path d="M170.837 245.607C170.837 245.509 170.866 245.43 170.925 245.371C171.004 245.293 171.092 245.253 171.19 245.253H173.902C174 245.253 174.079 245.293 174.138 245.371C174.216 245.43 174.256 245.509 174.256 245.607V265.531C174.256 265.629 174.216 265.717 174.138 265.796C174.079 265.855 174 265.884 173.902 265.884H171.279C171.082 265.884 170.945 265.806 170.866 265.648L162.378 251.737C162.339 251.678 162.299 251.659 162.26 251.678C162.221 251.678 162.201 251.718 162.201 251.796L162.26 265.531C162.26 265.629 162.221 265.717 162.142 265.796C162.083 265.855 162.005 265.884 161.906 265.884H159.195C159.097 265.884 159.008 265.855 158.93 265.796C158.871 265.717 158.841 265.629 158.841 265.531V245.607C158.841 245.509 158.871 245.43 158.93 245.371C159.008 245.293 159.097 245.253 159.195 245.253H161.818C162.014 245.253 162.152 245.332 162.231 245.489L170.689 259.4C170.729 259.459 170.768 259.489 170.807 259.489C170.846 259.469 170.866 259.42 170.866 259.341L170.837 245.607Z" fill="#404040"/>
<path d="M185.454 266.12C183.98 266.12 182.683 265.835 181.563 265.265C180.443 264.676 179.579 263.851 178.97 262.79C178.36 261.729 178.056 260.51 178.056 259.135V252.003C178.056 250.607 178.36 249.389 178.97 248.348C179.579 247.287 180.443 246.471 181.563 245.902C182.683 245.312 183.98 245.017 185.454 245.017C186.908 245.017 188.185 245.302 189.285 245.872C190.405 246.442 191.269 247.218 191.879 248.201C192.488 249.183 192.792 250.293 192.792 251.531V251.767C192.792 251.865 192.753 251.953 192.674 252.032C192.615 252.091 192.537 252.12 192.439 252.12H189.757C189.658 252.12 189.57 252.091 189.491 252.032C189.432 251.953 189.403 251.865 189.403 251.767V251.619C189.403 250.558 189.039 249.684 188.312 248.996C187.605 248.309 186.652 247.965 185.454 247.965C184.255 247.965 183.292 248.328 182.565 249.055C181.838 249.763 181.475 250.706 181.475 251.885V259.253C181.475 260.432 181.858 261.385 182.624 262.112C183.39 262.819 184.383 263.173 185.601 263.173C186.78 263.173 187.703 262.868 188.371 262.259C189.059 261.63 189.403 260.776 189.403 259.695V257.868C189.403 257.769 189.354 257.72 189.256 257.72H185.63C185.532 257.72 185.444 257.691 185.365 257.632C185.306 257.553 185.277 257.465 185.277 257.367V255.186C185.277 255.087 185.306 255.009 185.365 254.95C185.444 254.871 185.532 254.832 185.63 254.832H192.439C192.537 254.832 192.615 254.871 192.674 254.95C192.753 255.009 192.792 255.087 192.792 255.186V258.958C192.792 261.218 192.124 262.976 190.788 264.234C189.472 265.491 187.693 266.12 185.454 266.12Z" fill="#404040"/>
<path d="M216.09 245.253C216.188 245.253 216.267 245.293 216.326 245.371C216.404 245.43 216.443 245.509 216.443 245.607V247.876C216.443 247.975 216.404 248.063 216.326 248.142C216.267 248.201 216.188 248.23 216.09 248.23H210.667C210.569 248.23 210.519 248.279 210.519 248.377V265.531C210.519 265.629 210.48 265.717 210.402 265.796C210.343 265.855 210.264 265.884 210.166 265.884H207.454C207.356 265.884 207.268 265.855 207.189 265.796C207.13 265.717 207.101 265.629 207.101 265.531V248.377C207.101 248.279 207.051 248.23 206.953 248.23H201.737C201.638 248.23 201.55 248.201 201.471 248.142C201.412 248.063 201.383 247.975 201.383 247.876V245.607C201.383 245.509 201.412 245.43 201.471 245.371C201.55 245.293 201.638 245.253 201.737 245.253H216.09Z" fill="#404040"/>
<path d="M219.954 265.884C219.855 265.884 219.767 265.855 219.688 265.796C219.63 265.717 219.6 265.629 219.6 265.531V245.607C219.6 245.509 219.63 245.43 219.688 245.371C219.767 245.293 219.855 245.253 219.954 245.253H222.665C222.763 245.253 222.842 245.293 222.901 245.371C222.98 245.43 223.019 245.509 223.019 245.607V265.531C223.019 265.629 222.98 265.717 222.901 265.796C222.842 265.855 222.763 265.884 222.665 265.884H219.954Z" fill="#404040"/>
<path d="M239.309 245.607C239.309 245.509 239.339 245.43 239.397 245.371C239.476 245.293 239.564 245.253 239.663 245.253H242.374C242.472 245.253 242.551 245.293 242.61 245.371C242.689 245.43 242.728 245.509 242.728 245.607V265.531C242.728 265.629 242.689 265.717 242.61 265.796C242.551 265.855 242.472 265.884 242.374 265.884H239.751C239.555 265.884 239.417 265.806 239.339 265.648L230.85 251.737C230.811 251.678 230.772 251.659 230.732 251.678C230.693 251.678 230.673 251.718 230.673 251.796L230.732 265.531C230.732 265.629 230.693 265.717 230.615 265.796C230.556 265.855 230.477 265.884 230.379 265.884H227.667C227.569 265.884 227.481 265.855 227.402 265.796C227.343 265.717 227.314 265.629 227.314 265.531V245.607C227.314 245.509 227.343 245.43 227.402 245.371C227.481 245.293 227.569 245.253 227.667 245.253H230.29C230.487 245.253 230.624 245.332 230.703 245.489L239.162 259.4C239.201 259.459 239.24 259.489 239.28 259.489C239.319 259.469 239.339 259.42 239.339 259.341L239.309 245.607Z" fill="#404040"/>
<path d="M262.125 245.253C263.54 245.253 264.778 245.499 265.839 245.99C266.9 246.481 267.715 247.189 268.285 248.112C268.874 249.016 269.169 250.077 269.169 251.295V259.842C269.169 261.06 268.874 262.131 268.285 263.055C267.715 263.959 266.9 264.656 265.839 265.147C264.778 265.639 263.54 265.884 262.125 265.884H254.934C254.835 265.884 254.747 265.855 254.668 265.796C254.61 265.717 254.58 265.629 254.58 265.531V256.541C254.58 256.443 254.531 256.394 254.433 256.394H253.283C253.185 256.394 253.097 256.364 253.018 256.306C252.959 256.227 252.93 256.139 252.93 256.04V254.39C252.93 254.292 252.959 254.213 253.018 254.154C253.097 254.075 253.185 254.036 253.283 254.036H254.433C254.531 254.036 254.58 253.987 254.58 253.889V245.607C254.58 245.509 254.61 245.43 254.668 245.371C254.747 245.293 254.835 245.253 254.934 245.253H262.125ZM265.75 251.855C265.75 250.735 265.436 249.851 264.807 249.203C264.178 248.535 263.324 248.201 262.243 248.201H258.146C258.048 248.201 257.999 248.25 257.999 248.348V253.889C257.999 253.987 258.048 254.036 258.146 254.036H260.858C260.956 254.036 261.035 254.075 261.094 254.154C261.172 254.213 261.211 254.292 261.211 254.39V256.04C261.211 256.139 261.172 256.227 261.094 256.306C261.035 256.364 260.956 256.394 260.858 256.394H258.146C258.048 256.394 257.999 256.443 257.999 256.541V262.79C257.999 262.888 258.048 262.937 258.146 262.937H262.272C263.314 262.937 264.139 262.613 264.748 261.964C265.377 261.296 265.711 260.412 265.75 259.312V251.855Z" fill="#404040"/>
<path d="M273.143 265.884C273.045 265.884 272.956 265.855 272.878 265.796C272.819 265.717 272.789 265.629 272.789 265.531V245.607C272.789 245.509 272.819 245.43 272.878 245.371C272.956 245.293 273.045 245.253 273.143 245.253H275.854C275.953 245.253 276.031 245.293 276.09 245.371C276.169 245.43 276.208 245.509 276.208 245.607V265.531C276.208 265.629 276.169 265.717 276.09 265.796C276.031 265.855 275.953 265.884 275.854 265.884H273.143Z" fill="#404040"/>
<path d="M294.473 247.847C294.473 247.945 294.434 248.034 294.355 248.112C294.296 248.171 294.217 248.201 294.119 248.201H284.069C283.971 248.201 283.922 248.25 283.922 248.348V253.859C283.922 253.958 283.971 254.007 284.069 254.007H290.818C290.916 254.007 290.995 254.046 291.054 254.125C291.133 254.184 291.172 254.262 291.172 254.36V256.6C291.172 256.699 291.133 256.787 291.054 256.866C290.995 256.924 290.916 256.954 290.818 256.954H284.069C283.971 256.954 283.922 257.003 283.922 257.101V262.79C283.922 262.888 283.971 262.937 284.069 262.937H294.119C294.217 262.937 294.296 262.976 294.355 263.055C294.434 263.114 294.473 263.192 294.473 263.291V265.531C294.473 265.629 294.434 265.717 294.355 265.796C294.296 265.855 294.217 265.884 294.119 265.884H280.856C280.758 265.884 280.67 265.855 280.591 265.796C280.532 265.717 280.503 265.629 280.503 265.531V245.607C280.503 245.509 280.532 245.43 280.591 245.371C280.67 245.293 280.758 245.253 280.856 245.253H294.119C294.217 245.253 294.296 245.293 294.355 245.371C294.434 245.43 294.473 245.509 294.473 245.607V247.847ZM287.606 271.926C287.016 271.926 286.535 271.73 286.161 271.337C285.788 270.963 285.602 270.492 285.602 269.922C285.602 269.352 285.788 268.881 286.161 268.507C286.535 268.134 287.016 267.947 287.606 267.947C288.175 267.947 288.647 268.134 289.02 268.507C289.394 268.881 289.58 269.352 289.58 269.922C289.58 270.492 289.394 270.963 289.02 271.337C288.647 271.73 288.175 271.926 287.606 271.926ZM283.391 243.426C283.234 243.426 283.136 243.387 283.096 243.308C283.057 243.21 283.077 243.102 283.155 242.984L285.395 239.889C285.493 239.752 285.631 239.683 285.808 239.683H288.902C289.079 239.683 289.217 239.752 289.315 239.889L291.555 242.984C291.614 243.062 291.643 243.141 291.643 243.22C291.643 243.357 291.545 243.426 291.349 243.426H289.286C289.109 243.426 288.971 243.347 288.873 243.19L287.488 241.215C287.448 241.176 287.409 241.157 287.37 241.157C287.331 241.157 287.301 241.176 287.281 241.215L285.896 243.19C285.798 243.347 285.66 243.426 285.484 243.426H283.391Z" fill="#404040"/>
<path d="M309.94 245.607C309.94 245.509 309.97 245.43 310.028 245.371C310.107 245.293 310.195 245.253 310.294 245.253H313.005C313.103 245.253 313.182 245.293 313.241 245.371C313.32 245.43 313.359 245.509 313.359 245.607V265.531C313.359 265.629 313.32 265.717 313.241 265.796C313.182 265.855 313.103 265.884 313.005 265.884H310.382C310.186 265.884 310.048 265.806 309.97 265.648L301.481 251.737C301.442 251.678 301.403 251.659 301.363 251.678C301.324 251.678 301.305 251.718 301.305 251.796L301.363 265.531C301.363 265.629 301.324 265.717 301.246 265.796C301.187 265.855 301.108 265.884 301.01 265.884H298.298C298.2 265.884 298.112 265.855 298.033 265.796C297.974 265.717 297.945 265.629 297.945 265.531V245.607C297.945 245.509 297.974 245.43 298.033 245.371C298.112 245.293 298.2 245.253 298.298 245.253H300.921C301.118 245.253 301.255 245.332 301.334 245.489L309.793 259.4C309.832 259.459 309.871 259.489 309.911 259.489C309.95 259.469 309.97 259.42 309.97 259.341L309.94 245.607Z" fill="#404040"/>
<path d="M337.118 245.253C337.216 245.253 337.295 245.293 337.354 245.371C337.432 245.43 337.472 245.509 337.472 245.607V247.876C337.472 247.975 337.432 248.063 337.354 248.142C337.295 248.201 337.216 248.23 337.118 248.23H331.695C331.597 248.23 331.548 248.279 331.548 248.377V265.531C331.548 265.629 331.508 265.717 331.43 265.796C331.371 265.855 331.292 265.884 331.194 265.884H328.483C328.384 265.884 328.296 265.855 328.217 265.796C328.158 265.717 328.129 265.629 328.129 265.531V248.377C328.129 248.279 328.08 248.23 327.981 248.23H322.765C322.667 248.23 322.578 248.201 322.5 248.142C322.441 248.063 322.411 247.975 322.411 247.876V245.607C322.411 245.509 322.441 245.43 322.5 245.371C322.578 245.293 322.667 245.253 322.765 245.253H337.118Z" fill="#404040"/>
<path d="M358.548 242.748C358.784 242.748 358.901 242.866 358.901 243.102C358.823 244.202 358.45 245.076 357.781 245.725C357.133 246.373 356.337 246.786 355.394 246.963C355.296 247.002 355.247 247.061 355.247 247.14V259.194C355.247 260.569 354.942 261.787 354.333 262.848C353.724 263.89 352.859 264.695 351.74 265.265C350.62 265.835 349.323 266.12 347.849 266.12C346.395 266.12 345.108 265.835 343.988 265.265C342.868 264.695 341.994 263.89 341.365 262.848C340.756 261.787 340.451 260.569 340.451 259.194V245.607C340.451 245.509 340.481 245.43 340.54 245.371C340.618 245.293 340.707 245.253 340.805 245.253H343.517C343.615 245.253 343.693 245.293 343.752 245.371C343.831 245.43 343.87 245.509 343.87 245.607V259.253C343.87 260.412 344.234 261.355 344.961 262.082C345.688 262.809 346.651 263.173 347.849 263.173C349.048 263.173 350.01 262.809 350.737 262.082C351.464 261.355 351.828 260.412 351.828 259.253V245.607C351.828 245.509 351.857 245.43 351.916 245.371C351.995 245.293 352.083 245.253 352.182 245.253H354.363C354.932 245.253 355.453 245.096 355.925 244.782C356.396 244.448 356.661 243.888 356.72 243.102C356.76 242.866 356.887 242.748 357.104 242.748H358.548ZM347.554 243.868C347.436 243.848 347.348 243.799 347.289 243.721C347.25 243.642 347.25 243.544 347.289 243.426C347.505 242.895 347.829 242.414 348.262 241.982C348.478 241.766 348.635 241.579 348.733 241.422C348.832 241.245 348.881 241.019 348.881 240.744C348.881 240.528 348.782 240.331 348.586 240.154C348.389 239.978 348.164 239.889 347.908 239.889C347.633 239.889 347.397 239.958 347.201 240.096C347.004 240.233 346.768 240.479 346.493 240.832C346.415 240.95 346.317 241.009 346.199 241.009C346.1 241.009 346.022 240.98 345.963 240.921L345.197 240.361C345.098 240.302 345.049 240.213 345.049 240.096C345.049 239.997 345.069 239.919 345.108 239.86C345.521 239.27 345.933 238.848 346.346 238.592C346.778 238.337 347.328 238.209 347.997 238.209C348.822 238.209 349.48 238.435 349.971 238.887C350.482 239.339 350.737 239.958 350.737 240.744C350.737 241.196 350.639 241.569 350.443 241.864C350.266 242.159 349.991 242.493 349.617 242.866C349.264 243.22 349.008 243.534 348.851 243.809C348.733 244.025 348.586 244.104 348.409 244.045L347.554 243.868Z" fill="#404040"/>
<path d="M378.823 245.253C378.921 245.253 379 245.293 379.059 245.371C379.138 245.43 379.177 245.509 379.177 245.607V247.876C379.177 247.975 379.138 248.063 379.059 248.142C379 248.201 378.921 248.23 378.823 248.23H373.4C373.302 248.23 373.253 248.279 373.253 248.377V265.531C373.253 265.629 373.214 265.717 373.135 265.796C373.076 265.855 372.997 265.884 372.899 265.884H370.188C370.089 265.884 370.001 265.855 369.922 265.796C369.863 265.717 369.834 265.629 369.834 265.531V248.377C369.834 248.279 369.785 248.23 369.687 248.23H364.47C364.372 248.23 364.283 248.201 364.205 248.142C364.146 248.063 364.116 247.975 364.116 247.876V245.607C364.116 245.509 364.146 245.43 364.205 245.371C364.283 245.293 364.372 245.253 364.47 245.253H378.823Z" fill="#404040"/>
<path d="M388.282 266.179C386.809 266.179 385.502 265.884 384.362 265.295C383.223 264.686 382.339 263.831 381.71 262.731C381.101 261.63 380.796 260.363 380.796 258.929V252.209C380.796 250.794 381.111 249.546 381.739 248.466C382.368 247.365 383.242 246.521 384.362 245.931C385.502 245.322 386.809 245.017 388.282 245.017C389.776 245.017 391.082 245.322 392.202 245.931C393.342 246.521 394.226 247.365 394.855 248.466C395.483 249.546 395.798 250.794 395.798 252.209V258.929C395.798 260.363 395.483 261.63 394.855 262.731C394.226 263.831 393.342 264.686 392.202 265.295C391.082 265.884 389.776 266.179 388.282 266.179ZM388.282 263.232C389.52 263.232 390.512 262.848 391.259 262.082C392.006 261.316 392.379 260.304 392.379 259.047V252.179C392.379 250.902 392.006 249.88 391.259 249.114C390.512 248.348 389.52 247.965 388.282 247.965C387.064 247.965 386.082 248.348 385.335 249.114C384.588 249.88 384.215 250.902 384.215 252.179V259.047C384.215 260.304 384.588 261.316 385.335 262.082C386.082 262.848 387.064 263.232 388.282 263.232ZM384.274 243.426C384.117 243.426 384.019 243.387 383.979 243.308C383.94 243.21 383.96 243.102 384.038 242.984L386.278 239.889C386.376 239.752 386.514 239.683 386.691 239.683H389.785C389.962 239.683 390.1 239.752 390.198 239.889L392.438 242.984C392.497 243.062 392.526 243.141 392.526 243.22C392.526 243.357 392.428 243.426 392.232 243.426H390.169C389.992 243.426 389.854 243.347 389.756 243.19L388.371 241.215C388.331 241.176 388.292 241.157 388.253 241.157C388.214 241.157 388.184 241.176 388.164 241.215L386.779 243.19C386.681 243.347 386.543 243.426 386.367 243.426H384.274ZM392.114 240.302C391.996 240.282 391.907 240.233 391.849 240.154C391.809 240.076 391.809 239.978 391.849 239.86C392.065 239.329 392.389 238.848 392.821 238.416C393.037 238.199 393.194 238.013 393.293 237.856C393.391 237.679 393.44 237.453 393.44 237.178C393.44 236.962 393.342 236.765 393.145 236.588C392.949 236.411 392.723 236.323 392.467 236.323C392.192 236.323 391.957 236.392 391.76 236.529C391.564 236.667 391.328 236.912 391.053 237.266C390.974 237.384 390.876 237.443 390.758 237.443C390.66 237.443 390.581 237.414 390.522 237.355L389.756 236.795C389.658 236.736 389.609 236.647 389.609 236.529C389.609 236.431 389.628 236.352 389.668 236.294C390.08 235.704 390.493 235.282 390.905 235.026C391.338 234.771 391.888 234.643 392.556 234.643C393.381 234.643 394.039 234.869 394.531 235.321C395.041 235.773 395.297 236.392 395.297 237.178C395.297 237.63 395.199 238.003 395.002 238.298C394.825 238.592 394.55 238.926 394.177 239.3C393.823 239.653 393.568 239.968 393.411 240.243C393.293 240.459 393.145 240.538 392.968 240.479L392.114 240.302Z" fill="#404040"/>
<path d="M411.598 245.607C411.598 245.509 411.628 245.43 411.686 245.371C411.765 245.293 411.853 245.253 411.952 245.253H414.663C414.761 245.253 414.84 245.293 414.899 245.371C414.978 245.43 415.017 245.509 415.017 245.607V265.531C415.017 265.629 414.978 265.717 414.899 265.796C414.84 265.855 414.761 265.884 414.663 265.884H412.04C411.844 265.884 411.706 265.806 411.628 265.648L403.139 251.737C403.1 251.678 403.061 251.659 403.021 251.678C402.982 251.678 402.962 251.718 402.962 251.796L403.021 265.531C403.021 265.629 402.982 265.717 402.904 265.796C402.845 265.855 402.766 265.884 402.668 265.884H399.956C399.858 265.884 399.77 265.855 399.691 265.796C399.632 265.717 399.603 265.629 399.603 265.531V245.607C399.603 245.509 399.632 245.43 399.691 245.371C399.77 245.293 399.858 245.253 399.956 245.253H402.579C402.776 245.253 402.913 245.332 402.992 245.489L411.451 259.4C411.49 259.459 411.529 259.489 411.569 259.489C411.608 259.469 411.628 259.42 411.628 259.341L411.598 245.607Z" fill="#404040"/>
<path d="M426.215 266.12C424.741 266.12 423.444 265.835 422.325 265.265C421.205 264.676 420.34 263.851 419.731 262.79C419.122 261.729 418.817 260.51 418.817 259.135V252.003C418.817 250.607 419.122 249.389 419.731 248.348C420.34 247.287 421.205 246.471 422.325 245.902C423.444 245.312 424.741 245.017 426.215 245.017C427.669 245.017 428.946 245.302 430.046 245.872C431.166 246.442 432.031 247.218 432.64 248.201C433.249 249.183 433.554 250.293 433.554 251.531V251.767C433.554 251.865 433.514 251.953 433.436 252.032C433.377 252.091 433.298 252.12 433.2 252.12H430.518C430.42 252.12 430.331 252.091 430.253 252.032C430.194 251.953 430.164 251.865 430.164 251.767V251.619C430.164 250.558 429.801 249.684 429.074 248.996C428.366 248.309 427.414 247.965 426.215 247.965C425.016 247.965 424.054 248.328 423.327 249.055C422.6 249.763 422.236 250.706 422.236 251.885V259.253C422.236 260.432 422.619 261.385 423.386 262.112C424.152 262.819 425.144 263.173 426.362 263.173C427.541 263.173 428.465 262.868 429.133 262.259C429.82 261.63 430.164 260.776 430.164 259.695V257.868C430.164 257.769 430.115 257.72 430.017 257.72H426.392C426.294 257.72 426.205 257.691 426.126 257.632C426.068 257.553 426.038 257.465 426.038 257.367V255.186C426.038 255.087 426.068 255.009 426.126 254.95C426.205 254.871 426.294 254.832 426.392 254.832H433.2C433.298 254.832 433.377 254.871 433.436 254.95C433.514 255.009 433.554 255.087 433.554 255.186V258.958C433.554 261.218 432.886 262.976 431.55 264.234C430.233 265.491 428.455 266.12 426.215 266.12Z" fill="#404040"/>
<path d="M454.523 245.607C454.523 245.509 454.552 245.43 454.611 245.371C454.69 245.293 454.778 245.253 454.876 245.253H457.588C457.686 245.253 457.765 245.293 457.824 245.371C457.902 245.43 457.942 245.509 457.942 245.607V265.531C457.942 265.629 457.902 265.717 457.824 265.796C457.765 265.855 457.686 265.884 457.588 265.884H454.876C454.778 265.884 454.69 265.855 454.611 265.796C454.552 265.717 454.523 265.629 454.523 265.531V257.101C454.523 257.003 454.474 256.954 454.375 256.954H446.86C446.762 256.954 446.713 257.003 446.713 257.101V265.531C446.713 265.629 446.673 265.717 446.595 265.796C446.536 265.855 446.457 265.884 446.359 265.884H443.647C443.549 265.884 443.461 265.855 443.382 265.796C443.323 265.717 443.294 265.629 443.294 265.531V245.607C443.294 245.509 443.323 245.43 443.382 245.371C443.461 245.293 443.549 245.253 443.647 245.253H446.359C446.457 245.253 446.536 245.293 446.595 245.371C446.673 245.43 446.713 245.509 446.713 245.607V253.859C446.713 253.958 446.762 254.007 446.86 254.007H454.375C454.474 254.007 454.523 253.958 454.523 253.859V245.607Z" fill="#404040"/>
<path d="M477.503 242.748C477.739 242.748 477.857 242.866 477.857 243.102C477.778 244.143 477.434 244.988 476.825 245.636C476.236 246.265 475.509 246.688 474.644 246.904C474.585 246.904 474.546 246.923 474.526 246.963C474.526 247.002 474.546 247.041 474.585 247.081C475.234 247.729 475.725 248.485 476.059 249.35C476.393 250.215 476.56 251.167 476.56 252.209V258.929C476.56 260.363 476.246 261.63 475.617 262.731C474.988 263.831 474.104 264.686 472.964 265.295C471.844 265.884 470.538 266.179 469.045 266.179C467.571 266.179 466.264 265.884 465.125 265.295C463.985 264.686 463.101 263.831 462.472 262.731C461.863 261.63 461.558 260.363 461.558 258.929V252.209C461.558 250.794 461.873 249.546 462.502 248.466C463.13 247.365 464.005 246.521 465.125 245.931C466.264 245.322 467.571 245.017 469.045 245.017C470.597 245.017 471.962 245.352 473.141 246.02C473.259 246.078 473.318 246.039 473.318 245.902V245.607C473.318 245.391 473.426 245.263 473.642 245.224C474.173 245.165 474.635 244.968 475.028 244.634C475.421 244.3 475.646 243.789 475.705 243.102C475.745 242.866 475.872 242.748 476.089 242.748H477.503ZM473.141 252.179C473.141 250.902 472.768 249.88 472.021 249.114C471.275 248.348 470.282 247.965 469.045 247.965C467.826 247.965 466.844 248.348 466.097 249.114C465.351 249.88 464.977 250.902 464.977 252.179V259.047C464.977 260.304 465.351 261.316 466.097 262.082C466.844 262.848 467.826 263.232 469.045 263.232C470.282 263.232 471.275 262.848 472.021 262.082C472.768 261.316 473.141 260.304 473.141 259.047V252.179ZM469.103 271.926C468.514 271.926 468.033 271.73 467.659 271.337C467.286 270.963 467.099 270.492 467.099 269.922C467.099 269.352 467.286 268.881 467.659 268.507C468.033 268.134 468.514 267.947 469.103 267.947C469.673 267.947 470.145 268.134 470.518 268.507C470.892 268.881 471.078 269.352 471.078 269.922C471.078 270.492 470.892 270.963 470.518 271.337C470.145 271.73 469.673 271.926 469.103 271.926Z" fill="#404040"/>
<path d="M488.647 245.224C489.885 245.224 490.975 245.479 491.918 245.99C492.861 246.501 493.588 247.228 494.099 248.171C494.63 249.095 494.895 250.165 494.895 251.384C494.895 252.582 494.63 253.643 494.099 254.567C493.569 255.49 492.812 256.207 491.83 256.718C490.867 257.209 489.747 257.455 488.47 257.455H483.754C483.656 257.455 483.607 257.504 483.607 257.602V265.531C483.607 265.629 483.568 265.717 483.489 265.796C483.43 265.855 483.351 265.884 483.253 265.884H480.542C480.443 265.884 480.355 265.855 480.276 265.796C480.218 265.717 480.188 265.629 480.188 265.531V245.577C480.188 245.479 480.218 245.401 480.276 245.342C480.355 245.263 480.443 245.224 480.542 245.224H488.647ZM488.146 254.685C489.148 254.685 489.953 254.39 490.562 253.8C491.172 253.211 491.476 252.435 491.476 251.472C491.476 250.49 491.172 249.694 490.562 249.085C489.953 248.476 489.148 248.171 488.146 248.171H483.754C483.656 248.171 483.607 248.22 483.607 248.318V254.537C483.607 254.635 483.656 254.685 483.754 254.685H488.146Z" fill="#404040"/>
<path d="M179.687 147.661L204.787 107.058L179.687 112.964V52.4288C177.472 30.2817 165.661 30.2817 165.661 30.2817H20.9667C6.94022 30.2817 5.4637 53.167 5.4637 53.167V159.473C3.98724 189.002 23.1814 188.264 23.1814 188.264L159.755 209.673C181.163 213.364 178.949 185.311 178.949 185.311L179.687 147.661ZM147.205 195.646L26.8726 175.714C26.8726 175.714 15.799 173.499 15.799 155.043V53.167C15.799 53.167 15.799 39.8789 27.6107 39.1406H150.158C150.158 39.1406 161.231 39.8788 161.969 59.8111V174.976C161.231 175.714 163.446 197.123 147.205 195.646Z" fill="black"/>
<path d="M71.1665 99.678C71.1665 99.678 69.69 79.0073 83.7164 79.0073C98.4811 79.7455 102.172 97.4632 84.4547 109.275C66.7371 121.087 42.3753 133.637 44.59 159.475L123.581 171.287V143.234L80.7635 138.804C80.7635 138.804 93.3135 129.945 105.863 122.563C118.413 115.181 125.796 102.631 123.581 85.6514C120.628 68.672 107.34 48.7397 72.6429 56.8603C43.8518 63.5044 46.0665 98.2014 46.0665 98.2014L71.1665 99.678Z" fill="black"/>
<path d="M484.578 131.42C461.693 106.32 432.163 123.299 432.163 123.299C421.09 129.205 412.969 142.494 412.969 142.494C398.204 167.593 410.754 190.479 410.754 190.479C411.493 191.217 411.493 192.693 412.231 193.432C410.016 194.908 398.204 205.982 398.943 189.74V132.897C398.943 132.897 401.896 113.702 375.319 118.132C375.319 118.132 358.34 120.346 341.36 131.42V154.305H348.004C348.004 154.305 351.696 121.823 374.581 123.299C374.581 123.299 382.701 122.561 384.916 132.897C384.916 136.588 384.916 140.279 384.916 146.923C384.916 146.923 331.763 168.332 332.502 190.479C333.24 211.887 352.434 210.411 352.434 210.411C352.434 210.411 362.031 210.411 384.916 187.526V203.767C384.916 203.767 386.393 214.84 399.681 208.196C410.754 203.029 414.446 197.861 414.446 197.123C426.996 211.887 458.74 218.532 480.148 191.217C505.986 160.949 484.578 131.42 484.578 131.42ZM358.34 197.123C358.34 197.123 346.528 196.385 348.743 180.882C350.957 165.379 382.701 154.305 387.869 154.305C387.131 154.305 387.869 199.337 358.34 197.123ZM458.74 201.552C458.74 201.552 435.854 206.72 422.566 174.237C422.566 174.237 408.54 127.729 446.928 125.514C446.928 125.514 471.29 124.776 479.41 160.949C480.148 160.949 486.054 194.908 458.74 201.552Z" fill="#E10143"/>
<path d="M305.925 100.415C262.369 78.2677 237.269 70.8855 228.411 59.0738C219.552 47.262 212.908 19.9474 246.867 14.7797C280.825 9.6121 297.805 54.6443 296.328 62.0267L312.569 60.5501L305.187 4.44428C305.187 4.44428 248.343 -13.2733 208.478 23.6384C208.478 23.6384 179.687 48.0003 203.311 81.2208C203.311 81.2208 212.908 94.5089 243.914 106.321C243.914 106.321 281.563 123.3 285.993 126.991C291.16 129.944 315.522 146.185 304.449 174.976C293.375 203.767 249.081 202.291 232.84 183.097C216.599 163.903 215.861 156.521 212.908 143.232L198.143 145.447L205.525 203.767C205.525 203.767 231.364 214.841 270.49 209.673C309.616 204.506 328.81 169.809 330.287 166.856C331.763 163.165 349.481 122.562 305.925 100.415Z" fill="#E10143"/>
</svg>
