<svg id="Layer_1" data-name="Layer 1" xmlns="http://www.w3.org/2000/svg" viewBox="0 0 792 239.18"><path d="M153.56,208.27v-2.55h15.09v2.55Zm6,16.54V207.28h3v17.53Z" fill="#999b9e"/><path d="M170.84,224.81v-19.1h3v19.1Zm1.3-8.07v-2.55h7.3a2.81,2.81,0,0,0,2.1-.81,3.3,3.3,0,0,0,0-4.31,2.81,2.81,0,0,0-2.1-.81h-7.3v-2.55h7.18a7.32,7.32,0,0,1,3.27.69,5.27,5.27,0,0,1,2.17,1.92,5.39,5.39,0,0,1,.77,2.9,5.33,5.33,0,0,1-.78,2.9,5.22,5.22,0,0,1-2.17,1.93,7.25,7.25,0,0,1-3.26.69Zm10.73,8.07-4.9-8.66,3-.61,5.48,9.27Z" fill="#999b9e"/><path d="M186.92,224.81l7.88-19.09h2.56l7.89,19.09H202l-5.92-15.4-5.93,15.4Zm3.63-4.19v-2.54h11.26v2.54Z" fill="#999b9e"/><path d="M207.73,224.8V205.72h2.72l10.46,14.76-.36.34v-15.1h3V224.8h-2.75l-10.42-14.54.35-.34V224.8Z" fill="#999b9e"/><path d="M235.27,214.53h7.41v3.34a7.38,7.38,0,0,1-.93,3.76,6.39,6.39,0,0,1-2.61,2.49,8.33,8.33,0,0,1-3.94.89,9,9,0,0,1-4-.84,6.16,6.16,0,0,1-2.64-2.35,6.54,6.54,0,0,1-.95-3.53v-5.64a7.35,7.35,0,0,1,.94-3.75,6.39,6.39,0,0,1,2.61-2.49,8.33,8.33,0,0,1,3.94-.88,8,8,0,0,1,3.4.7,7.28,7.28,0,0,1,2.59,2,7,7,0,0,1,1.41,3h-3.25a3.84,3.84,0,0,0-1.61-2.27,4.48,4.48,0,0,0-2.54-.79,4.28,4.28,0,0,0-3.21,1.24,4.51,4.51,0,0,0-1.2,3.27v5.64a3.84,3.84,0,0,0,1.23,3,4.69,4.69,0,0,0,3.27,1.13,4.14,4.14,0,0,0,4.41-4.48v-.83h-4.34Z" fill="#999b9e"/><path d="M251.18,208.27v-2.55h15.09v2.55Zm6,16.54V207.28h3v17.53Z" fill="#999b9e"/><path d="M268.46,224.81V205.72h3v19.09Zm1.86-8.13v-2.54h11.87v2.54Zm10.28,8.13V205.72h3v19.09Z" fill="#999b9e"/><path d="M295.22,225a8.56,8.56,0,0,1-4-.87,6.44,6.44,0,0,1-2.62-2.47,7.09,7.09,0,0,1-.94-3.7v-5.41a7.11,7.11,0,0,1,.94-3.71,6.39,6.39,0,0,1,2.62-2.45,9.42,9.42,0,0,1,7.91,0,6.36,6.36,0,0,1,2.63,2.45,7.2,7.2,0,0,1,.93,3.71V218a7.19,7.19,0,0,1-.93,3.7,6.4,6.4,0,0,1-2.63,2.47A8.49,8.49,0,0,1,295.22,225Zm-.05-25.22,4.62,3.2L298,204.44l-2.87-2-2.86,2L290.56,203Zm.05,22.58a4.43,4.43,0,0,0,3.23-1.18,4.17,4.17,0,0,0,1.21-3.13v-5.59a4.15,4.15,0,0,0-1.21-3.13,5,5,0,0,0-6.45,0,4.12,4.12,0,0,0-1.22,3.13v5.59a4.14,4.14,0,0,0,1.22,3.13A4.42,4.42,0,0,0,295.22,222.37Z" fill="#999b9e"/><path d="M306.54,224.8V205.72h2.72l10.46,14.76-.36.34v-15.1h3V224.8h-2.75l-10.43-14.54.35-.34V224.8Z" fill="#999b9e"/><path d="M334.08,214.53h7.41v3.34a7.38,7.38,0,0,1-.93,3.76,6.39,6.39,0,0,1-2.61,2.49A8.33,8.33,0,0,1,334,225a9,9,0,0,1-4-.84,6.16,6.16,0,0,1-2.64-2.35,6.54,6.54,0,0,1-.95-3.53v-5.64a7.35,7.35,0,0,1,.94-3.75,6.39,6.39,0,0,1,2.61-2.49,8.33,8.33,0,0,1,3.94-.88,8.09,8.09,0,0,1,3.41.7,7.34,7.34,0,0,1,2.58,2,7,7,0,0,1,1.41,3h-3.25a3.87,3.87,0,0,0-1.6-2.27,4.53,4.53,0,0,0-2.55-.79,4.28,4.28,0,0,0-3.21,1.24,4.51,4.51,0,0,0-1.2,3.27v5.64a3.84,3.84,0,0,0,1.23,3A4.69,4.69,0,0,0,334,222.4a4.13,4.13,0,0,0,4.41-4.48v-.83h-4.34Z" fill="#999b9e"/><path d="M350,208.27v-2.55h15.09v2.55Zm6,16.54V207.28h3v17.53Z" fill="#999b9e"/><path d="M370.27,205.72v19.09h-3V205.72Z" fill="#999b9e"/><path d="M374.81,224.8V205.72h2.72L388,220.48l-.36.34v-15.1h3V224.8h-2.75l-10.42-14.54.35-.34V224.8Z" fill="#999b9e"/><path d="M401,214.12h9.85v2.29H401Zm2.19,10.69V205.72h3v19.09Zm2,0v-2.55H410a5.54,5.54,0,0,0,3.67-1.09,3.81,3.81,0,0,0,1.3-3.09v-5.62a3.81,3.81,0,0,0-1.3-3.09,5.49,5.49,0,0,0-3.67-1.1H405.2v-2.55H410a9.09,9.09,0,0,1,6,1.79,6.24,6.24,0,0,1,2.12,5.05V218a6.81,6.81,0,0,1-.95,3.7,6,6,0,0,1-2.78,2.33,10.85,10.85,0,0,1-4.41.81Z" fill="#999b9e"/><path d="M424.89,205.72v19.09h-3V205.72Z" fill="#999b9e"/><path d="M429.43,224.81V205.72h3v19.09Zm1.46-16.54v-2.55h12.28v2.55Zm0,8.34v-2.55h10.66v2.55Zm0,8.2v-2.55h12.28v2.55Zm5.63-25,4.62,3.2-1.75,1.45-2.87-2-2.87,2L431.9,203Zm-1.46,30.59V227.7h3v2.68Z" fill="#999b9e"/><path d="M446.68,224.8V205.72h2.72l10.46,14.76-.36.34v-15.1h3V224.8h-2.75L449.3,210.26l.35-.34V224.8Z" fill="#999b9e"/><path d="M471.41,208.27v-2.55H486.5v2.55Zm6,16.54V207.28h3v17.53Z" fill="#999b9e"/><path d="M495.31,225a7.73,7.73,0,0,1-5.54-1.86,6.87,6.87,0,0,1-2-5.24V205.72h3V218a4.31,4.31,0,0,0,1.17,3.23,5.45,5.45,0,0,0,6.67,0,4.28,4.28,0,0,0,1.19-3.23V205.72h3v12.19a6.84,6.84,0,0,1-2,5.24A7.76,7.76,0,0,1,495.31,225Zm0-25.14a5,5,0,0,1,2.61.53,1.75,1.75,0,0,1,.87,1.61,1.5,1.5,0,0,1-.79,1.38,4.74,4.74,0,0,1-2.37.47l-1.28-1a5.31,5.31,0,0,0,1.4-.14c.3-.09.45-.22.45-.4,0-.37-.43-.56-1.31-.56a12,12,0,0,0-1.69.12l-.17-1.83A11.94,11.94,0,0,1,495.31,199.87Zm-1.2,4.55v-1.56h2.45v1.56Zm8.68,3.19H500v-1.89h2.36a1.93,1.93,0,0,0,1.4-.48,1.78,1.78,0,0,0,.49-1.34v-1h2.93v1.22a3.11,3.11,0,0,1-1.13,2.55A5.07,5.07,0,0,1,502.79,207.61Z" fill="#999b9e"/><path d="M513.57,208.27v-2.55h15.08v2.55Zm6,16.54V207.28h3v17.53Z" fill="#999b9e"/><path d="M537.33,225a8.56,8.56,0,0,1-4-.87,6.38,6.38,0,0,1-2.62-2.47,7.09,7.09,0,0,1-.94-3.7v-5.41a7.11,7.11,0,0,1,.94-3.71,6.33,6.33,0,0,1,2.62-2.45,9.42,9.42,0,0,1,7.91,0,6.36,6.36,0,0,1,2.63,2.45,7.2,7.2,0,0,1,.93,3.71V218a7.19,7.19,0,0,1-.93,3.7,6.4,6.4,0,0,1-2.63,2.47A8.49,8.49,0,0,1,537.33,225Zm-.05-25.22,4.62,3.2-1.75,1.45-2.87-2-2.86,2L532.67,203Zm.05,22.58a4.43,4.43,0,0,0,3.23-1.18,4.2,4.2,0,0,0,1.21-3.13v-5.59a4.19,4.19,0,0,0-1.21-3.13,5,5,0,0,0-6.45,0,4.12,4.12,0,0,0-1.22,3.13v5.59a4.14,4.14,0,0,0,1.22,3.13A4.41,4.41,0,0,0,537.33,222.37Zm3.91-26.15a5.06,5.06,0,0,1,2.62.53,1.75,1.75,0,0,1,.86,1.61,1.51,1.51,0,0,1-.78,1.38,4.8,4.8,0,0,1-2.38.47l-1.28-1a5.26,5.26,0,0,0,1.4-.14c.3-.09.46-.22.46-.4,0-.37-.44-.56-1.31-.56a11.9,11.9,0,0,0-1.69.12L539,196.4A12.09,12.09,0,0,1,541.24,196.22Zm-1.19,4.55v-1.56h2.44v1.56Z" fill="#999b9e"/><path d="M548.65,224.8V205.72h2.72l10.46,14.76-.36.34v-15.1h3V224.8h-2.75l-10.42-14.54.35-.34V224.8Z" fill="#999b9e"/><path d="M576.19,214.53h7.41v3.34a7.38,7.38,0,0,1-.93,3.76,6.39,6.39,0,0,1-2.61,2.49,8.33,8.33,0,0,1-3.94.89,9,9,0,0,1-4-.84,6.16,6.16,0,0,1-2.64-2.35,6.54,6.54,0,0,1-1-3.53v-5.64a7.35,7.35,0,0,1,.94-3.75,6.39,6.39,0,0,1,2.61-2.49,8.33,8.33,0,0,1,3.94-.88,8,8,0,0,1,3.4.7,7.28,7.28,0,0,1,2.59,2,7,7,0,0,1,1.41,3h-3.25a3.84,3.84,0,0,0-1.61-2.27,4.48,4.48,0,0,0-2.54-.79,4.28,4.28,0,0,0-3.21,1.24,4.51,4.51,0,0,0-1.2,3.27v5.64a3.84,3.84,0,0,0,1.23,3,4.68,4.68,0,0,0,3.27,1.13,4.14,4.14,0,0,0,4.41-4.48v-.83h-4.34Z" fill="#999b9e"/><path d="M595,224.81V205.72h3v19.09Zm1.87-8.13v-2.54h11.87v2.54Zm10.28,8.13V205.72h3v19.09Z" fill="#999b9e"/><path d="M621.8,225a8.49,8.49,0,0,1-3.95-.87,6.46,6.46,0,0,1-2.63-2.47,7.19,7.19,0,0,1-.93-3.7v-5.41a7.2,7.2,0,0,1,.93-3.71,6.42,6.42,0,0,1,2.63-2.45,9.42,9.42,0,0,1,7.91,0,6.42,6.42,0,0,1,2.63,2.45,7.2,7.2,0,0,1,.93,3.71V218a7.19,7.19,0,0,1-.93,3.7,6.46,6.46,0,0,1-2.63,2.47A8.56,8.56,0,0,1,621.8,225Zm0-2.64a4.41,4.41,0,0,0,3.23-1.18,4.17,4.17,0,0,0,1.21-3.13v-5.59a4.15,4.15,0,0,0-1.21-3.13,5,5,0,0,0-6.45,0,4.16,4.16,0,0,0-1.22,3.13v5.59a4.17,4.17,0,0,0,1.22,3.13A4.44,4.44,0,0,0,621.8,222.37Zm-1.5,8V227.7h3v2.68Zm7.86-22.24h-3.87V206h3.38c1.27,0,1.9-.69,1.9-2.08v-.44h2.93v.7Q632.5,208.14,628.16,208.14Z" fill="#999b9e"/><path d="M634.3,224.81V205.72h3v19.09Zm1.55-7.4v-2.55h6.83A3.13,3.13,0,0,0,645,214a3.2,3.2,0,0,0,.89-2.37,3.28,3.28,0,0,0-.89-2.41,3.17,3.17,0,0,0-2.36-.9h-6.83v-2.55h6.73a7.32,7.32,0,0,1,3.38.73,5.56,5.56,0,0,1,2.25,2,6.33,6.33,0,0,1,0,6.16,5.4,5.4,0,0,1-2.25,2,7.32,7.32,0,0,1-3.38.73Z" fill="#999b9e"/><path d="M0,50.6H37.23c23.23,0,51.46,11.2,51.46,37S59.6,129,37.57,129H0V80.54H27.65V110.6s7,.11,11,.11c8.44-.34,22.55-7.54,22.55-23.08s-15.92-19.2-20-19.2H0Z" fill="#18bae6"/><path d="M350.52,50.6h-20c-16.06.37-49.79,7.77-49.79,39.89S320,129,328.94,129h21.58V110.71H334.8c-4.82,0-24.27-3.31-24.27-20.62s18.59-21.66,25.64-21.66h14.35Z" fill="#18bae6"/><polygon points="380.86 50.6 380.86 129 405.19 129 405.19 74.71 442.02 129 469.21 129 469.21 97.46 502.83 97.46 502.83 129 530.25 129 530.25 50.6 502.85 50.6 502.85 80.63 469.29 80.54 469.29 50.6 441.84 50.6 441.84 95.29 411.66 50.6 380.86 50.6" fill="#18bae6"/><path d="M536.39,129h98.67s-34.84-77.62-33-78.4h-31.2l27.42,60.11H571.15l10.9-30.17H557.84Z" fill="#18bae6"/><polygon points="639.99 129 664.32 129 664.32 74.71 703.9 129 731.21 129 731.21 97.46 764.71 97.46 764.71 129 792.24 129 792.24 50.6 764.71 50.6 764.71 80.66 731.21 80.54 731.21 50.6 703.9 50.6 703.9 95.4 671.88 50.6 639.99 50.6 639.99 129" fill="#18bae6"/><path d="M197.08,174.22a82.85,82.85,0,0,0,50.32-32.29l544.84-.07" fill="none" stroke="#02bbe9" stroke-miterlimit="10" stroke-width="7"/><path d="M262,108c.15-.84.29-1.67.41-2.52a82.43,82.43,0,0,0,.88-12c0-45.56-37.09-82.5-82.83-82.5a82.48,82.48,0,0,0-16.69,163.33" fill="none" stroke="#02bbe9" stroke-miterlimit="10" stroke-width="7"/><ellipse cx="180.42" cy="175.89" rx="13.16" ry="13.11" fill="#ed1c24"/><ellipse cx="262.23" cy="106.31" rx="9.81" ry="9.77" fill="#02bbe9"/><text transform="translate(337.72 171.02) scale(1.66 1)" font-size="23.21" fill="#bdbdc1" font-family="Arial-Black, Arial" font-weight="800" letter-spacing="1.4em">ONLINE</text><path d="M198.71,106.09l0-.13-.07-.09-.1-.07-.06-.09.11-.11-.05-.13-.09-.15,0-.14.08-.12.39-.35.14-.18,0-.09-.08-.08-.57-.41-.15-.07-.11-.08-.08-.1,0-.12v-.13l-.06-.14v-.13l.09-.08h.17l.27-.08.16,0h.15l.26,0,.15,0,.1-.09v-.1l-.09-.17v-.08l0-.07.14-.1,0-.05.1-.14,0-.17,0-.29,0-.09.09-.08.06,0,0,0,.06,0,0,0,.07-.43V101l-.06-.13-.14-.14-.42-.29-.11-.12-.07-.16,0-.35v0l0-.08-.17,0-.4.06-.18-.09,0-.17v-.21l0-.18-.13-.06-.07,0h0l0,0,0-.07-.05-.11H198l0,0h-.05l-.19,0h-.07l-.09.07-.06.08-.07,0-.11-.06-.5-.85-.13-.1-.36-.17-.15-.11-.09-.13-.05-.14,0-.38,0-.13-.1-.1-.52-.28-.11-.13,0-.19.23-.5.11-.1.11,0,.1,0,.09,0h.08l.08,0,.66-.4.17-.06.36-.06.13-.06.15-.15.26-.43.13-.12.12-.13v-.08l-.07-.07,0-.1v-.18l0-.1,0,0h-.19l-.52.13-.28,0-.26-.08-.22-.18-.35-.42-.24-.15-.15,0-.13,0-.13,0-.14-.09-.12-.1-.06-.07,0,0-.06-.11-.1-.49-.08-.12-.18-.12-.17-.09h0l-.14,0-.37,0h-.32l-.12,0-.1-.06,0-.06,0-.21,0-.09-.06-.05L193,91l-.17-.12-.08-.11-.12-.25h0l-.06,0-.06,0,0,0v0l0,0,0,0v0l0-.3,0-.37-.17-.23h-.22l-.21.32,0,.15-.11.09-.25.15-.05.08v.07l0,.07h0l-.08.07-.1,0h-.06l0,0v-.1l-.28,0-.21-.15-.15-.24-.13-.36v-.11l0-.49,0-.1-.14-.06h-.13l-.19-.07-.18-.11-.21-.22-.09-.19-.05-.22V85.46l-.08-.15-.26.23-.22-.06-.16,0-.18-.06-.16-.07-.09-.07h0l0-.09-.05-.08-.16-.3v0l.06-.1v0l-.1-.16-.45-.39-.29-.44-.05-.14v-.1l.07-.14v-.09l0,0-.13-.13,0-.06,0-.11v-.1l0-.07-.12,0h-.12l-.05.05,0,.08,0,.08-.14.13-.11.06h-.13l-.21-.1-1.57-1.26-.82-.93h0l-.2-.19-.61-.74-.25-.22-.31-.19-.49-.2-.12-.09-.08-.14-.12-.35-.09-.16-.21-.26L181,77.7l-.37-.32-.1-.31.11-.7,0,0-.13-.25h0l-.23-.11-.06-.07,0-.09,0-.21,0-.1-.08-.07-.17-.09-.07-.06L179.6,75l0,0-.1,0-.05,0v0l0,0,0,0v-.06l-.08-.25-.06-.08-.14-.11L179,74.2l-.2,0-.17.08-.06.08,0,.2,0,.07-.08,0h0l0,0-.07,0-.15,0-.17-.07-.16-.1-.1-.14v-.1l.06-.22,0-.11-.06-.09h0l0,0-.25,0h-.09l-.1,0-.07-.06-.08-.14-.05-.07-.46-.26-.09-.12v-.19l.06-.13v-.11l-.17-.16-.3-.2-.21-.2-.11-.25.05-.38.15-.51.12-.28.14-.17h.11l.11,0h.1l.07-.15v-.15l-.06-.08-.21-.13-.27-.41-.11,0-.11,0-.11,0h-.12l-.23-.07-.47-.26-.16,0-.16,0h-.18l-.17,0-.1-.09-.09-.23-.25-.07-.54,0h-.13l-.37-.11-.39-.05-.11,0-.07,0-.11-.16-.05,0-.09,0-.19,0-.09,0-.14-.09-.26-.25-.13-.09-.32-.16-.11-.1-.33-.46-.11-.1L170,67l-.18,0-.29,0-.17,0-.12-.09-.27-.38-.16-.13-.15-.07-.16,0-.18-.08-.15-.11-.12-.12-.14-.09h0l-.19,0-.27.08-.09-.08v-.17l0-.18-.1-.09-.38-.24-1-.44-.2,0h-.2l-.2.08h0l-.28-.18-.24-.12-.06-.05,0-.06-.12-.22-.16,0h-.17l-.09,0,.08-.16.12-.09.34-.14.15-.1.18-.26.11-.09.2-.05.22-.1.22-.07.14,0,0,0h0l.08-.13,0-.09,0-.22.06-.1.09-.05.11,0,.08,0,0-.11h0l-.11-.13,0-.15,0-.16-.06-.15-.1-.09-.3-.16-.11-.14-.18-.48,0-.11.06-.15.09,0,.1,0,.46.22.18.06.19,0,.07-.06.07-.14.07-.06.05,0h.2l.4-.1.27-.07.12.1.33.11.18.27.44-.26.17,0,.19,0,.11.08.09.11.13.13.08,0,.24.1.53.3.16,0,.22,0,.09,0,.14-.09.09,0,.08,0,.16.09h.09l.08-.1.3-.74.08-.12.12-.13L172,60l.12,0h.12l.18-.05.23-.2.23-.09.19-.13.09-.3,0-.15V59l-.07-.05-.18,0-.28,0,0,0,.06-.17.18-.21.51-.29.22-.15.08-.13,0-.08,0,0,.18,0,.28,0,.12,0,.1-.08,0,0,0-.13,0-.11,0-.11,0-.18,0-.08v0l0,0,.13,0,0,0-.07-.14-.36-.23-.13-.17v-.21l.05-.1v-.07l-.84-.43-.38,0-.43.13-.4.08-.32-.15,0-.12v-.19l0-.19,0-.12.08-.06h.08l.08,0,.06-.12v-.09l0-.11,0-.1,0-.08-.14-.1-.36-.13-.15-.1-.22-.28-.13-.07-1.35,0-.39-.09-.29-.18.06-.17.54-.35h0l.2-.36.23.17.25,0,.23-.07.21-.15.61-.78.07-.22v0l-.14-.13-.54-.17-.48-.22-.16-.15-.09-.29-.13-.13-.19,0h-.22l-.19,0-.07-.07-.08-.17-.05-.06-.07,0-.15,0-.08-.05-.12-.14-.15-.29-.11-.14-.07-.06-.09-.05-.09,0-.09,0h-.09l-.21.05h-.06l0,0-.1-.2-.05-.07-.07,0-.27-.09-.1,0h-.21l-.09,0-.08,0-.15-.1-.06,0-.34,0-.43.47-.35.06h-.11l-.09,0-.19.08-.7.2-.07,0-.14.12-.09,0h-.09l-.19,0-.11,0-.09.11-.1.17-.08.19,0,.15,0,.19,0,.09,0,.07-.19.11-.12,0h-.08l-.06,0,0,.12V51l.1.18v.07l-.05,0-.11,0-.11,0h-.09l-.1,0,0,0,0,0-.21-.17-.36-.37-.19-.1-.58-.11h-.1l-.08,0-.07,0-.08-.05-.1-.12-.17-.32-.11-.1-.13,0,0,0,0,.05-.07.06-.19.1h0l-.24.06h-.15l-.26-.09-.54-.26-.15,0h-.08l-.12,0-.07,0H158l-.09,0-.13-.08-.08,0-.09,0-.17,0-.1,0-.06,0-.14-.13-.27-.31-.18-.27-.29-.61-.21-.42-.15-.16-.24-.09-.13,0-.08,0,0-.07,0-.08-.06-.17-.09-.36h0l-.11-.15-.1-.06h-.07l-.07,0-.06-.09v-.09l.09-.19v-.08l-.05-.12-.09-.1-.13-.08-.14,0h-.38l-.08,0,.11-.18.16-.11.31-.07.12-.11,0-.16v-.43l0-.19.31-.47V44l-.13,0L155,44l-.19.11-.14.06.43-.66.2-.17.36-.41.18-.17v-.11l-.09-.2,0-.23v-.65l0-.1,0-.11-.07-.12-.05,0-.06,0-.68.28h-.16l-.12-.12,0-.18,0-.37-.08-.43-.19-.14-.16.15,0,.75-.11.3-.21.26-.29.18-.11,0h-.5l0,0h0l-.07-.1-.06-.15-.05-.21,0-.22.05-.55-.09-.38-.32-.69-.29-.23-.42-.12-.36-.18-.11-.35v0l0,0,0,0,0,0,.09-.12-.15-.12-.23-.13-.2-.14-.06-.1-.09-.24-.07-.1-.09-.07-.29-.17-.68-.62-.57-.26-.18-.17-.06-.19-.13-.12-.17-.1-.13-.15,0-.05,0-.12v0l0,0L148,35.6l0,0-.09-.3-.06-.09-.06-.13.09-.13.18-.1.16,0,.21,0,.16.08.14,0,.12-.15.05-.16.06-.32.09-.17L150.16,33l.07-.12,0,0,0-.08,0-.06-.09-.06-.07-.07v-.1l.06-.07h.21l.1,0,.11-.13.08-.15.1-.34h0l.16-.19.23,0,.25.08.21.14.1.19,0,.17.07.11h.21l.07,0,0-.08.06-.06.1,0,0,0,.14.15.06,0,.19.06.37.07.2.07.56.43.18.07.4.09.17.08.13.14.07.16.06.17.32.6.09.09.16.08.35.09.31.21.18.07h.19l.15-.1,0-.15,0-.16V34.2l.13-.08.15,0,.16-.06.48-.31,0-.07v-.1l-.11-.13,0-.08.11-.28.25-.18.56-.28.16-.12.07-.1.17-.42.37-.61.11,0,.22.07.12.07.11.08.1.1.08.11.13.07,0,.14v.16l0,.17.06.13.34.54.24.25.12.07.17,0,.1-.06.3-.42.05-.09v-.07l0-.4,0-.09.2-.24.08-.15.06-.14.07-.11.13-.08.41-.22.1.06.65.73.64.54.1.11,0,.08.19.28.06.06.08,0,.21.22.06,0,.15,0,0,0,.08.1.14.24.07.05.15,0,.1.08.08.09.13-.08.11-.11,0-.12,0-.14v-.15l0-.14.13-.28,0-.15.06-.57.09-.27.2-.25.09-.08.11-.19.07-.08.13-.09.11,0,.28,0,.8-.26h.27l-.08.19,0,.2v.2l.06.19.12.13.52.23.2.11.14.06.14,0,.07,0,.82-.5.18-.18.61-.47.17-.18,0,0,.09,0V31l0,0,.05,0,0,0,0,0,.08,0,.06,0,.09-.11.06,0,.18,0,.31.09h.2l.16-.06.14-.08.12-.12.33-.43.11-.11.46-.27,0-.09v-.19L173,28.52l.13-.1.23,0,.24-.19,0-.13v-.16l0-.13.1-.08h.14l.24.14.14,0,.09-.06.34-.29.33-.15.29-.19.14-.06.76-.2,0,0v0l0,0,0,0h0l.07.05h.11l0,0,.07,0,.11,0,.15-.11.06-.16,0-.18.08-.18.09-.1.32-.27.13-.07h.18l.07.11,0,.17.08.18.11.13.14.12.16.1.13.05h.09l.07,0h.07l.11,0,.05.05.12.21.19.38.09.1.41.26,0,0,.07.08L180,28v.4l0,.18.12.15.13.05.67,0,.27.07h.24l.09,0,.18.18.12.05.11,0,.1.05.11.1h0l.13.18.53.56.17.12.08,0,0-.07,0-.08.06,0,.1,0,.16,0h.09l.3,0,.15,0,.12-.07.15-.3.09,0,.74-.06.52.06.35.09.31.18.19.33,0,.35.07.11.2.08.2,0h.19l.18,0,1.34-.33.15-.08,0-.21L189,30l.13,0,.15.06.47.11.14.08.09.14.08.15.1.11.21,0,.07,0,.08-.13.08,0,.1,0,.07.06.1.13.28.21.15.24v0h.14l.22,0,.21,0,.08.12-.07.12-.31.17-.11.09-.07.17,0,.3-.08.17-.2.29-.07.15-.17.48-.12.1h-.2l-.15-.1-.1-.17L190.1,33l-.19,0-.1.11-.08.2-.22,1,0,.07-.1.15,0,.1v.1l.06.23v.06l0,.35.05.14.13.13.21.07h.38l.15.13.06.12.22.69,0,.1-.08.07-.11.14,0,.14.06.1.07.1,0,.11v.06l0,.16v.08l0,0,.08.09,0,0v.25l-.05.22-.18.44V39l0,.08.06.06h.15l.14-.1.31-.32.06,0,.13,0,0,0,.08.1,0,0,.2.1.16,0h.39l.23.05.12.1.08.14.12.14.21.1.16,0,.15-.09.17-.06h.19l.17.08.1.13v.2l-.09.15-.13.14-.1.15,0,.2.13.13.19.06.4.08.27.15.74.61.37.09.3-.09.27,0,.29.27.25.69,0,0,.14.13.32-.19.26-.25.15-.06.19.05.1.14,0,.33.12.06.17.06.09,0h.08l.08-.05.08-.15.06,0,.17,0,.4.05h.19l.55-.12.18-.06.37-.26.14,0H201l.17,0,.32.08.2.08.07.09,0,.12.11.16.11.1.27.19.33.33.12,0,.45.42-.2.1-.21.19-.17.12-.13-.15v-.09l.05-.06.05,0,0,0V43.6l0-.05,0,0v0l0-.13-.08-.09-.13,0-.14,0,0,.07v0l-.07.08H202l-.06-.15-.06.08-.08.26-.11,0-.07-.06,0-.13v-.17h0l-.08.06v.06l.05,0v0l0,.12h-.08l-.05-.12-.07.07,0-.19-.12,0-.16,0-.14.06v.07h.15l.12,0,.07.08,0,.14-.13-.06,0,.07,0,.13,0,.06h-.1l-.07,0L201,44l0,.06.06.06-.15.25h-.26l0,0,0,.08h-.13l-.13,0-.07-.08h-.07l0,0,0,0v.06l.06.12-.06.07h-.12l-.15-.06,0,0v0l0,0v.07l-.07,0,0,0,0,0,.08.06h-.06l-.14.06h.06v0l0,0-.15,0,0,.23,0,.11-.09.05h-.15l-.11,0-.08-.06-.07-.1,0-.11,0-.1-.05-.08-.12,0v0l0,.1,0,.1,0,.08v.07l.11,0-.1,0h-.21l-.19,0h0l-.09,0-.1-.05,0-.08-.05,0-.34-.08-.06.13.07.06.25.14v0l-.18.08h-.3l-.23.07v.06l0,.07,0,.06-.06.05,0,.08v.34l-.05.11.08.05.08,0h.08l.09,0-.06.42-.07.22-.14.14.06.08v.05l0,0-.09,0,0,.14,0,.14,0,.11.09.07v0l-.15.12-.1,0-.13,0h-.39l-.12.05-.13-.05h-.2l-.19,0-.13.05.05,0,0,0,0,0H196v.07l-.15,0-.21.22,0,.14h-.14l-.11,0-.09,0-.11-.05v.06l-.15-.13-.46-.06-.18-.07v-.06l.28-.33.51-.31v-.07h-.13l-.12,0-.11,0-.09,0,0,.06v.07l0,0-.08,0,0,0v-.07l0-.07,0,0,0,0h0l0,0-.08.15-.08.07-.06,0,0-.18h-.06v.18l0,.08,0,.06v-.14l0-.1-.06-.07H194v0l0,0,.06.07,0,0H194l.13.13H194l-.09,0-.17-.15,0,.13.24.19,0,.13-.08.14-.15.06h-.35l-.16,0-.14-.05-.12-.06-.1-.06-.23-.19-.11,0,0,.1,0,0h-.09l.27.3.12.09.2.09.05,0,0,.06,0,.08,0,.07.1,0v.07H193l-.15,0-.1-.1-.09-.18h-.07v.08l0,.07,0,.06.05,0-.19.26-.07-.06-.08-.19-.17-.14,0,0v0l0-.06h-.07l-.19.05-.22-.1-.1-.14.16-.07H192l.09,0,0-.06v-.1l-.07,0-.1,0,0-.07.13-.1L192,48l-.07-.05-.08,0h-.1l0,0,0,.07,0,0-.21,0L191.4,48l-.14,0-.2.09v.07h.08v.07l-.36-.14-.2,0-.16,0,.08,0h0l.29.11v.06l-.07,0-.19,0v.06l.09.08,0,.1v.1l.05.1.1.06h.24l.21.08h.11l.09,0,0,.16,0,.12-.09.13,0,.11h-.06l-.19-.19-.17.19.07.11.18.09.17.12.08.21,0,.2-.12.09-.17-.12.06.17.13.19.16.17.16.12.06-.07.1.14.16.5-.2-.14-.08-.08,0-.06-.05-.06-.11,0-.1.07,0,0h-.08l-.07,0-.08,0H191l-.27-.07h-.13v.06l.24.09.14.1v.11l-.19.15-.13.06-.15.06-.15,0h-.16l-.08-.06-.13-.18-.11-.08,0,.15h0l.06.08.14.15.05,0h0l0,0v.15l0,.05,0,0-.15.06-.21.18-.61.23.17.08h.14l.27-.14v.06l-.11.15.07.13.09.14,0,.16h-.05l-.27.09,0,0,0,0-.07.07-.06.09-.05.07h.06l.13-.08.22-.08.21,0,.1.09,0,.41-.06.21-.1.13-.05-.09v0h-.06l.17.16,0,.08,0,.11,0,.15,0,.17,0,.26-.1.11-.21-.21-.09-.12-.12-.09-.15,0-.16.05h-.06l.05.07,0,0,.07,0,.07,0,0-.09.23.15,0,0,0,.08.1.16,0,.13,0,.14-.15.07-.12,0-.11,0-.23.05-.3,0-.13,0-.61.06v-.06h.06v-.06h-.06l-.05,0-.09,0v.06l.07.07-.06,0-.2.08-.07.06-.12.25-.33.39-.2.13-.23.31-.22.12-.23.25-.14.08.09-.21,0,0-.07-.07-.07.13-.11.28-.08.1-.14.08-.35.08-.16.1-.05-.14,0-.15.06-.16,0-.19h-.07l0,.15-.14.4,0,.09-.14,0-.15-.08-.13-.1-.07-.1h-.06l0,.12-.11.12-.42.35-.08.09-.06.14v.09l.07.15v.09l-.2.25,0,.14v.26l0,.11,0,0-.1-.09-.06.1-.14.09-.25.13.06.07.12-.06.27,0,.13,0-.05.12-.17.21,0,.15-.06.06h-.27l-.06.13,0,.15-.21.31-.07.15,0,.14v.26l0,.1v-.2l-.13,0-.13.09v.14l0-.06.07-.08,0,0,0,.08,0,.09v.15h0v.35l-.1.7,0,.35-.13-.07-.13.25-.13,0v0l.11.09,0,.1,0,.26.18.31,0,.14-.2-.13,0,.09,0,.1.07,0,0,0,0,.19,0,0v0l-.07,0h-.09l-.07,0-.08.26h-.12l-.13,0,0,0-.12.57v.34l.07.24-.24.1-.09.06-.06.09-.26-.08-.23.22-.18.35-.1.27V67l0,.09,0,.08v.12l.07.3,0,.11.13.16.2.17.24.13.2,0v.06l-.13.13,0-.08-.06-.06-.08,0h-.09l.1.22,0,0,.06,0,.17,0,.07,0,.19.2.11.14,0,.14-.14.38,0,.06.09.07v.18l0,.19,0,.13.18-.09v-.21l0-.56,0,0,.17.11.06.26v.27l.05.12.06.1.23.66.5.77.34.35h.32l0,.18.06.18.08.16.09.12.22.15.08.07.35.42.5.39.11.14,0,.11-.18,0,.09.07.16,0,.21-.07.22,0,.15.05.49.36.07,0,.2.07.09,0,.26.32.32.23.13.11.07.17h-.07l-.09-.06-.12,0-.11.07-.06.09.12.06,0,0,0,0h.12l0,.11,0,.09.09.18v-.12l0-.11.05-.09,0-.06.1-.05.06,0,.07,0h.1l.08-.05.18-.21.11,0V75l-.1.18.05.19.1.19.75.88.06.07v0l-.19.12-.19.14-.09.11-.08.12-.1.08h-.18v.07l.1,0,0,.06,0,.08-.06.09.08.17.09.27.09.47,0,.1.2.17,0,.07-.08.08h-.1l-.28-.12-.13-.21-.09,0-.14,0-.35-.17-.64-.06-.13-.06-.07.06.14.09.22.08.22.06.32,0,.46.11v.07h-.06l-.19-.07-.18.11,0,.19.28.15-.06-.11,0,0,0,0,.21-.09.31,0,.3.11.21.13.1.12.23.38.25.27.46.73.11.3.08.15h0l.18.14v0l0,0,.12.16.83.86,1.73,1.19.57.4,1,.68.15.26-.06.37.11.08.51.69.13.08,0,.06,0,0-.06,0-.07,0,0,.07-.06,0-.33.18v.06h.35l.1,0,0,0,0-.07v0l.17-.12.08,0,.07.06.05.08,0,0,.14.07,1.22,1,.32.22.81.56,1,.85.29.07v.07l-.37-.1-1.16-.57-.29.05.73.38.22,0,.11,0,.08.13.1,0,.11,0,.08,0,.07.1.09.07.23.09v.07l-.11,0,0,0h-.07l0,0v0l0,.07h.14l.13,0,.25,0-.06.06,0,.06,0,.07v.08h0l.07.08.05.1,0,0h.09l0,0,0-.06.05-.06.1-.05.06.05,0,.09,0,.07.35.22.09.09.22.32.17.11.21.26.18.07,0,0-.05,0h-.06l-.07,0,0,0-.07,0-.1,0,0,.07.12.52.05.08.11.08.23.12h.06l.09-.06.08,0,.06.07,0,.09.08,0,0,0,.35-.25,0-.06-.06-.28v-.09l.14,0,.43.29.2.05.08-.06,0-.08.05-.08.12,0v.06l.09.31.08.16.31.47-.27-.19-.13,0-.06.13.08.11.17.06.18,0,.1,0h.06l.17.07.24,0,.26,0,.24,0,0,0-.1.12-.33.25-.12.2v.27l.16.14.21.11.14.18.15-.13.08,0,.06,0,.08.31,0,0-.05.14-.1.13-.12.1-.12.07.18,0,.17-.09.15,0,.08.12-.09-.47-.07-.12v-.14l.07-.16v-.14l-.21,0v-.07l.08,0,.05-.06,0-.07,0-.07.07,0v0h0l0,0h.07l.08.08.11.08.14.06.16,0v0l.06-.09.07-.06,0,0,0,0,.11.12-.11.08-.1.06-.08.07,0,.11-.09-.07-.24,0-.13,0-.07.33.06.36.13.32,0,.06.11.18.12.13.5.36.14.07.13.09.08.16-.1,0-.08,0,0,0,.07,0,.06,0,.06-.06.07,0h.07l0,.12.08.56.3.54,1.54,2,.26.14.35,0-.08.26-.07.06-.11-.13-.11,0-.14.06-.08.11.08.17.22.15.15-.08.21-.38h.06l.05.18v.23l.06.06.22.18.05.06,0,0,.17.1,0,0,.07.07v.32l.06.1,0,0,0,0v0h.06v0l.06-.13H211v-.06l-.23,0-.08-.16.07-.19.18-.11v-.07l-.06,0,0,0-.06-.08.08,0H211l.06,0,0,.14.06.36.06.07.07,0,.23.16,0,.08v.33l.05.12.24.2.12.07.07,0h.13l.05,0-.07.12-.1.08-.13.05h-.15v.07h.15l0,0,0,.08-.14-.06,0,.1,0,.26,0,.14-.15-.06h-.12l-.06.06.07.11h.06l.08,0,.07,0,.05.08v.12h.06v-.08l0,0,0-.12.09.81.22.71.59,1.27-.19,0,.05.06.21.07,0,.08.19.27.06.06.35.43.05.13.09.43-.08,0-.06-.06,0-.07v.12l0,.59.05.1v.06l0,0h-.09l-.05.1-.06,0,0,.06.05.12.06-.18v-.08l.32.82.17.21,0,.12v.49l0,.13.05.15.12.25.3.31.09.12,0,.12.06.38-.1.14.14.31.32.48-.18,0-.07-.09-.05-.11-.1-.1-.21,0,0,.13.11.19.29.15.1.14.26.64.12,1,.09.13.25.19.05.08-.06.71,0,.35-.08,0h-.24l0-.1.06-.52-.13-.45-.08-.15-.11.1,0,.09,0,.34-.1.17v.06l.11,0,.07.21.06.07.12,0-.1.11-.12.08-.08.12,0,.19.12.2h0l0,.07v.25l0,.17.06.19.09.16.12.06v0l.12.08.12.07h.05l0,.08v.06l0,0h-.1v.06l0,0v0l0,.12-.08-.08-.21-.34-.1-.23-.26-.27-.07-.13h-.07v.14l.05.07.09,0,.07.07,0,.1,0,.18,0,.09.12.1.08,0v.05l0,0h0l.07.09.2.23h.07l0-.05,0,0,.12-.05,0,.09-.08.11V117l0,.12.08.07.1,0,.11,0,0,.09-.08.12,0,.1-.09.17-.06.07-.11.07-.08-.1-.2,0,0-.08,0-.06.1,0,.09-.06,0-.11-.06-.06-.3-.2h-.09l-.08,0-.06.08-.06.14,0,.07,0,.07v.07l.11.09-.08.07,0,.09,0,.15.16.08.16.2.13.08.11-.09h.08l.07.1,0,.1,0,.07-.08,0h-.1v0l0,0,0,.06v.15l-.05,0-.11,0,0,0,0,.08h0l-.07,0,.13.31.09.13.12.12,0-.28,0-.11.1,0v0l0-.07v0h0l.06.06,0,.08,0,.08v.19l0,.06-.11.21v.09l.07.18,0,.15,0,.14,0,.14,0,.16.08.12.09.11.06.12,0,.08.12.07.08.08.19.33.25.26.19.28.4.42.06.1,0,.14v.17l0,.15,0,.09,0,0-.17,0h0l0-.06.05,0,.07,0,0,0,0,0,0,0v0l-.1,0-.2.12,0,0-.06.14,0,0-.08,0h-.1l-.06,0-.09.07.06.07v.36l.42.76.15.15h.14l.17.12,0,0,0,.07-.06,0H217l-.06.05,0,.13,0,.37v.11l-.1.06-.1-.1-.12-.27,0,0,0,0,0,0v-.1l0,0,.16-.14v0l-.19-.31,0,.08-.05,0-.08,0-.11,0,0,.08v.15l0,.08,0-.09-.07-.06-.09,0h-.11l.17-.23,0,0,0,0,.09,0,.09,0,0-.08,0-.14-.17-.21-.06-.11v-.27l0,0-.11,0,0,.06v.07l0,.07-.32.2-.09.08-.24.26-.13.12-.12,0-.09.06-.27.36v.09l0,.35-.07.06v.14l0,.14v.09h0l0,0v0h.07l0-.09,0-.11,0-.08.11,0v0h-.07v-.07l.16,0,0,.12-.09.15,0,.13,0,.17.11.11.47.28.05.08-.1.18v.09l0,.08.05,0,.14,0,.17.11.09.12-.11.1.07.06-.07.06-.12-.12-.06.08-.06.15-.11.08-.14,0-.1-.11-.13-.22-.41-.43-.28-.17-.27,0,0,0,.05.1,0,0-.1,0,0,0h-.07l0,.12.15.15.06.1.18,0,.1.14,0,.21v.2l0,.07.07.1.07.07.12.08v.08l-.06,0-.11,0h-.06l0,.06-.1.24-.21-.09-.05,0,.05.07.09.07.18.11-.06.13,0,.11.08.09.07.09-.25-.06-.09,0,0,.11.06-.06h0l.13.07,0,.07v.11l0,.07V129l.07.08,0,.11,0,.08-.11.09v.08l0,.37.06.16.27.47.09.1.27.17v.06l0,.16v0l-.17.12v.15l.05.13.09.1.13.05v.06l-.16.06h-.15l-.13-.06-.08-.12,0,0-.07,0,0,0-.08-.27.06-.66-.11-.3h.07l-.21-.53-.09-.38-.09-.11-.13.16.12.21,0,0v0l-.05.25.05.09.22.19,0,.14,0,.26-.09.25-.16.24-.24.2-.18,0-.11.29,0,.3.3.05.05-.08.14-.18.14-.14h.06l0,.13-.07.11v.12l.11.16v.23l.37.43-.1.2-.07-.07-.06.07-.09.18-.16.19,0,.08v.09l0,.13,0,.06-.18.14,0,.07,0,.1,0,.1-.12.14h-.06l-.11-.09h-.14l-.16,0-.18,0-.1-.12-.08-.3,0-.07-.22.05v.11l.11.12.07.05,0,.12,0,.13v.13l.06.14h-.26l.14.23v.39l-.09.6,0,.35,0,.1-.12.11-.23.18-.14.08-.14,0h-.17l-.41-.17-.15,0h-.17l-.17,0-.16.06-.31.21-.12.1-.09.12-.08.16-.11.45-.07.16-.09.07-.11,0h-.16l-.09,0-.2-.09h-.13l-.09,0-.19.08-.1,0h-.36l-.05,0-.12.12-.27.08-.16.13-.13.16-.08.14-.09.37-.09.09-.24,0-.07,0-.34.16-.1,0h-.16l-.07,0-.06.12-.12.41,0,.09-.19,0-.09.06-.15.28H206l-.08-.27-.25-.07-1.17.21-.27.09-.11.14,0,.09-.22.21-.05.13,0,.1-.13.25-.08.37-.35.65h-.06l-.1-.05-.42-.12-.16,0h-.2l-.15,0-.55.22-.4.3-.13.07-.35.11-.61.3-.21,0-.22.07-.32.17-.06,0-.1.07-.24.24-.05.09-.08.11-.18.1L198,144l-.17,0-.42.05-.37.11-.11,0-.07.1-.28.24-.23.33h-.17l-.36-.2-.25,0,0-.08.08,0,.08,0,0-.05v-.08l0-.08-.06-.06-.05,0,0,0-.19-.18h-.14l-.11,0-.07,0v.12h-.06L195,144l-.19-.08-.2,0-.15.1h-.06l0-.08v-.05l0-.12-.08.18-.07.08-.11,0,0-.17v-.07l-.14.06-.07,0-.05.07h-.06l0-.14.09-.07.09,0h0l.09-.05.07-.09v-.09l0-.64,0,0-.12-.13,0-.09,0,0,.1,0v0l0-.18-.1-.15-.27-.24,0,.13.1.1.13.09.07.08-.09.22v.12l.12,0,.1.06,0,.15-.1.22,0,.06.06.05.05,0v.08l-.06,0-.09,0-.11-.09.07-.06-.13-.13v-.05l0-.08,0-.11v-.24h-.06l-.06.25v.26l.07.24.19.16-.08,0-.08,0-.21.35-.08.06-.06,0V144l0-.09v-.09l0-.1,0,0-.05,0-.06-.07,0-.18v-.15l0-.31-.49-.39-.09-.07-.13.07-.18.08-.19.05-.08-.1,0-.1-.13-.13-.07-.06-.07,0-.13-.06h-.05l-.18.09-.06,0-.05.1.07.06.09,0,.05.05,0,.09.11.24,0,.11-.05,0-.06,0,0,.06-.06.14,0,.07,0,.11-.07.16-.12.06-.3.11h-.15l-.1-.16h-.06l0,.13,0,.06.06.06-.1,0-.11.05-.08.06-.07.19-.1,0-.12,0-.12.08v-.15l0-.11,0-.09-.07-.08,0,.31.05.12.1.05.17,0,.14-.08.1-.12.08-.13h.06l0,.12,0,.15.07.1h.18l.08-.07.15-.24.09-.05.16.05.11.13.07.15.09.13.12.13.06.13.07.77-.05.19-.14.09-.18,0-.49-.11h-1l-.69-.13H189l-.18,0-.15-.08-.14,0-.14,0,.54.32,2.27.72.05,0,.16.12,0,0,.05,0,.05,0,.06,0,.1,0h.1l.07,0,0,.05v.08l0,.2,0,.13-.51.5-.16.08-.15,0,0-.07v-.17l0-.07h-.07l-.05.15,0,0-.12.11-.06.08,0,.07,0,0,.06.08,0,.08,0,0-.14,0,0,0v.06l-.07.09,0,.06,0,0h-.4l-.15-.06-.13-.09-.14-.12-.14-.09-.47-.19-.27-.2-.25-.27-.78-1.17-.27-.25-.37-.11,0,0,.05,0,.05,0,.28.21.11.11.08.34.1.19.88,1.06.21.19.73.32.5.35.53.27.15,0,.09.08,0,.18-.1.19-.13.11v-.07l.06-.06v-.08l0-.09-.05-.07h-.06l0,.32-.19.2-.25.08-.23-.06-.22-.16-.56-.57-.23-.16-.8-.45-2.36-2.26-.08-.05-.09,0h-.06l0,0,0,0,0,.05.09,0,.07.05.22.22.08.12.06.3.09.13.1.11.21.18.3.2.34.24.09.08,0,.08.08.14.06.08.48.43.06,0,.18.22.82.63.24.25.16.28.09.35.1.1.23,0,.12.07,0,.16v.19l-.05.45-.11.31-.19.26-.24.19-.2.12-.11,0-.11,0-.09,0-.1,0-.13.08h-.39l-.13-.06-.45-.32-.82-.41L185,150l-.89-1-.35-.3-.28-.19-.32-.08-.3-.17-.18,0,.18.25.6.56,1.62,1.5.06.15,0,.16.09.18,1,1.34.06.13,0,.14,0,.37,0,.11-.34.34.09.09.08,0,.07,0,0,.13,0,.14-.08.06-.27.05-1.3.37-1.41.53-1,.39-2.09.72-.23.19-.41.41-.25.18-.1.12,0,.16,0,0-.12,0,0,0v0l0,.1v0l-.7,1.24-.18.24-.2.22-.33.24-.4,0-.3.12-.28.31-.27.41-.23.23-.63.16-1.69.44-.22,0-.06,0,0,0-.07,0-.59-.09-.22-.08-.06,0,0-.1.07,0,.12,0,.18,0,.46-.28.1-.06.09,0,.06,0,0-.1-.05-.09-.1,0,0,0,.13-.07h.12l.62.12.14,0,.15-.07.14-.1.06-.11-.22.1-.3.08h-.3l-.22-.12,0-.09,0,0,.11,0H174l.07,0,.16-.1v-.06l-.09-.15,0-.17.05-.17-.6.25-.39.08L173,159l-.16-.3.1-.34.11-.31.14-.4,0-.34v-.62l0-.77.08-.54.06-1.3v-.54l.06-1,0-.37.19-1.61.15-.49.2-.52.44,0,.29,0,.06-.15.16-.15.58-.41.2-.09.1.07,0,.14.23.56v-.12l-.06-.34v-.39l-.06-.19-.12-.2-.43-.52-.37-.33-.19-.1-.18,0-.38.09H174l-.3-.17-.22-.28-.19-.29-.19-.24-.31-.17-.32,0-.29.08-.25.2,0,.08v.08l0,.06-.11,0-.06,0,0,.17,0,0-.33,0,0,0-.05-.08v-.06l0-.06v-.11l0-.06-.13-.13,0-.09v-.24l0-.21-.09-.12-.26-.19,0,.06,0,0v0h-.08v-.24l-.1-.17-.21-.25,0-.12,0,0h.06l.08,0,.08-.1,0-.09v-.08l-.06-.1h-.07l-.07.14-.1.11-.12.08-.16,0h-.15v-.1l0-.15,0-.11.17,0,.14,0,.09-.09.4-.54.08-.14.09-.13.12-.08.15,0,.4,0,.71.08.23,0,.46,0,.43,0,.33-.12.23-.22.39-.55.11-.12.12-.09.93-.44.23-.21v-.29l-.33-.58-.15-.33,0-.31.06-.14.1-.13.09-.07,0,0,.13-.08.2-.1.06,0,0,.11.11.14.13,0,.92.16.42.07.15.09.32.27.14,0,.09-.08.28-.53.38-.42.12-.07.05,0,.26.07.22.09h.07l.47-.09.89-.17.14,0,.21-.09.18-.11h0l.22-.12.27-.08.26,0,.15.17.17.27.32.41.07.14.11.31.07.12.13.15.16.1h.2l.09-.09.11-.18.09-.2v-.14l.32.24.08.09.18.19.24.16.26.13.25.08.54,0,.24.06.21.16-.24-.85-.23-.41-.05-.15v0l0-.23,0,0,0-.09,0,0,.17,0h.3l.06-.05-.1-.18-.16-.51-.11-.15-.17-.12-.16,0-.14.08-.11.19-.1-.18-.13-.15-.33-.26-.14-.14-.23-.34-.14-.12-.5-.12-.2-.13-.09-.25h0l0-.19-.13-.07-.15,0-.12-.09v-.12l.16-.68.1-.3,0-.13,0-.14-.14-.47,0-.23v-.12l-.05-.1-.1-.07-.25,0-.12-.05-.09-.15,0,0,0-.18.11-.16.12-.12,0,0,.19-.14.16,0,.45.15h.27l.11-.12.09-.19.26-.26.05-.11,0-.12v-.12l.22-.22.44.07.49.14h.39l.65.19.18.09.08.08.13.19.09.07.12,0,.53-.13h.2l.13,0,.21.13.12.06h.12l.09-.14h0l-.08-.19-.26-.41v-.14l0-.13.08-.11.07-.13v-.31l.14-.21,0,0-.05-.22-.28-.49-.08-.2v0l.22,0h.11l.12,0,.09.05,0,.08.05.06h.12l.29-.19h.45l.82.11-.08-.14.47.1.2-.05.19-.23.11-.29.15-.21.22-.12h.29l.72.05.35,0,.35-.12.23-.15.64-.6.3-.34.25-.17.12-.1.06-.12.28-.28.56-.25.15,0,.46-.13.41,0,.22.13.29.41.18.15h.21l.32-.4.23-.15.25-.09.13-.17.08-.2.05-.22.27-.73V126h0l-.06-.12,0-.09.06-.1.05-.12,0-.27,0-.29-.23-1,0-.26v-.25l0-.23-.13-.25-.26-.28-.07-.11,0-.13,0-.27-.11-.23,0-.1,0-.1.05-.08,0,0,0-.05v-.06l0-.06-.15-.1,0-.13.95-2.16.13-.29.3-.68,0-.28-.06-.88-.07-.33-.78-1.41-.16-.22-.22-.23,0,0-.09-.13-.18-.2,0-.14v-.09l.06-.2v-.08l-.1-.27,0-.15.05-.1,0-.11,0-.11v0l-.13-.27v-.25l-.06-.09-.15,0-.35,0-.16-.06-.11-.16v-.18l0-.19,0-.18-.1-.15-.09-.09,0-.1,0-.22.32-.86,0-.31v-.09l0-.09-.09-.17,0-.08,0-.19.07-.16.19-.32,0-.08v-.09l0-.07.08-.06.12,0,0,0,0,.06.06,0,.18,0,.12-.09.09-.14.11-.23,0-.12V108l0-.12.14-.18,0-.11v-.14l0-.27,0-.14.22-.46.05-.22Zm-12.36,45.5.12.11.53.11.12.08,0,.22-.06.16-.13.08h-.25v-.06l.05-.16-.14-.19-.21-.17-.14-.09-.07.06.14.16.16.12.05.06-.19,0-.09-.08-.33-.46-.23-.27-.11-.16-.05-.15,0-.19-.08-.14-.21-.25.06-.06,0,0,0,0,.08.05.46.6.45.42Zm4.84-5.75.22,0,.08.05,0,.12-.06.07-.13.07-.14,0-.05,0-.08-.11-.19-.07-1.23-.21-.45-.19h.15l.31.13.26,0H191Zm4.23-1.75.29.24.08.11,0,0h-.05l0,0h-.07l0,.11-.07.05-.07,0-.06.18-.09.05-.2.06L195,145l-.2.27-.13.11-.12-.44.05-.16.38-.09.28-.14.06-.05v-.09l0-.12,0-.1Zm-2.22.23.2.12.11.08.08.1-.47.11-.18.07-.13.13h-.07v-.17l0-.12-.06-.1,0-.1,0-.16.14-.19,0-.14h-.07v.12l-.08-.2.09-.14.17-.08.19-.06.2.13-.05.27-.2.45h.07Zm-.26-.83-.06.09-.12,0-.13-.08-.08-.07,0,0-.09-.14h0l0-.08.09-.07,0-.07,0-.18,0-.08-.13-.07v-.06l.1,0,.12,0h.1l0,.07.22.13,0,.07,0,0h.05l0,0V143l0,0,0,0,0,0,0,.1,0,.1v.08l-.08.06-.05,0,0-.09-.08-.18h-.07l0,.11.09.16Zm22.84-15.07.07,0,.06,0,0,.06,0,0,0,0-.1.06-.05,0-.05-.06-.06,0h-.07l-.08,0h0v0l-.19,0-.17-.09-.14-.11-.08-.09v-.06l.06,0,.13,0,.07,0v-.13l.17.07Zm-25.17,31-.22,0v.1l.09.13.06.12-.12,0h-.1l-.09,0-.11,0-.09,0v.35l0,0h-.15l-.05,0-.15-.18,0-.05.11-.22.25-.23.31-.2.26-.1h0l0,0,0,0v.05h-.12l0,.06v.06Zm-1.55-10.2.31.29.13.18-.08.08-.14-.08-.23-.33-.27-.13-.43-.38v-.06l0,0,.15,0,.41.27Zm-22.81-4.26,0,.15V146l-.37.86-.13.49.17.24-.07.18v.11l0,.1,0,.15-.15-.08,0,0-.19-.08-.13-.39-.13-.75-.25-.67-.18-.28-.28-.21-.36-.17-.12-.11-.07-.35,0-.1.05,0,.59.08h.18l.08-.08,0,0,.1-.14,0,0,.09,0,0-.09v-.1l0-.09.07-.08.09-.07h.11l.12.11-.07-.06Zm26.36-.8-.15,0-.13,0-.11,0-.12,0,.05,0h0l0,0,.14.13.1.18v.17l-.18.07-.22-.08-.24-.2-.2-.24-.11-.21,0-.14v-.11l0-.24h0l0-.06,0-.14,0,0,.16,0,.06,0,.07-.22-.07-.21-.25-.37h.21l.09,0,.09.07.08.13.06.06.25.07.12.11.06.13V143l-.07.06,0,.06,0,.1,0,0,.11.14,0,0,.1.06,0,.12-.07.11-.23,0v.06h.15l.07.06.1.18Zm1.95-94.06,0,0,0,0,.06.06-.11,0-.07-.06-.09-.17,0,.08v.07l0,.06.06,0v.07l-.12,0h-.09l-.09,0-.09-.07.05.2.29.15.05.17h-.07v-.06h-.06l0,.16-.09.16v-.2l-.06,0,0,0,0,0v-.07l-.06.07,0-.05,0,0v-.06h.2v-.06l0,0h0v0l0,0H194v.07H194l0,0-.06-.05,0,0h-.07l0,.1,0,0v.06l-.19-.12-.22-.28-.11-.12-.28-.16-.1-.13,0-.17.22-.07.06,0,0-.06v-.07l0-.07.09-.06-.07.07.13.12.29,0,.1.09h.06v-.16l.09,0,.13,0,.09.08v.06l0,.1.12.07.15,0h.15l0,.07,0,.05.05,0,.07,0-.2,0-.06,0Zm-2.27-.74.05.13.34.41,0,.24-.12.06-.17,0-.08,0-.05-.15-.19-.38,0-.21,0,.08,0,.08,0,.08,0,.08H192l-.13-.07-.14,0-.13,0,0-.17.07-.27.11-.24.37.15.11.12Zm6.47-.29.23-.43,0-.15,0,0,0,0v.07l-.06.21L199,49l-.45.62-.06.1-.07.19-.07.07h-.12l.15-.33,0-.15-.11-.1V49.3h.2l.13,0,.1-.08Zm2.07-1,.13,0,.32.22v.06l-.09,0,0,0h-.05l0,.19-.06.14-.14.11-.17.08.18-.32v-.1l-.05-.06-.09-.05-.06-.09Zm-2,0,.13-.13,0,0,.06,0,0,.12-.14.33-.1.33-.06.14-.1.11-.13.08-.16,0-.23,0-.42.1-.16,0v0l.27-.11.26-.14.22-.16.16-.17,0-.1,0-.15.11-.27,0,0,.11,0,0-.09.1-.17Zm.83-.9.07,0h0v.06l-.33.69-.06.29-.1.23-.19,0,.1,0v-.06l0-.08,0-.11,0-.1.13-.12,0-.1,0-.21,0-.08,0-.07,0,0Zm-.38-.9.21-.06h0l0,.12-.11.11-.31.2-.1.14h-.07l-.14,0-.19.19-.32.41-.1.06-.23.08-.12.06-.32.26-.15-.12.06-.21.14-.23.08-.18,0-.11.08-.27.05-.28h.06l.07.07h0v-.08l0-.05.09,0,0-.07v-.38l0-.12,0-.05,0,0,0,0h.08l0,0,.1.07.21.26.07,0h.06l.05,0,0,.08v.13l0,0,0,0h.06l.06,0Zm2.2-1.39,0,0,0,0v0h0l-.07,0-.92.37,0,0,.11-.12.55-.31.15-.06Zm.52-.28,1.22-.13v.06l-.36.23-.15,0-.07-.08h-.06l-.07,0-.65.21h-.12l0-.09.05-.11.05.09v0l0-.07.06-.06.07,0h-.2l-.23,0v-.06l.31-.09Zm10.14,98.78.15.12.07.18-.05.13h-.19l-.1-.09,0-.14,0-.13ZM216.39,125l.08.17,0,.11,0,.12-.16,0-.34-.22-.06-.08-.05-.06-.12,0-.1-.07.07-.12.25,0,.21,0,.14,0,.07.09Zm-19.1-75.18.11.07,0,.05v.13l0,0,0-.06-.06,0h-.07l-.1-.05-.08-.16v-.13h0l.11.12Zm.12-.58.09,0,0,.06,0,0,0,0v0l0,0-.13.05h-.12l-.07-.05-.1-.12,0,0,0,0,0-.05v0l.05,0,.07,0,.05,0h.29ZM201.59,48l.16-.1.13,0,0,.13-.08.07-.16.21h-.09v-.16Zm16,37.74,0,.15v.94l-.36.87-.13.49.17.23-.07.19v.11l0,.09,0,.16-.15-.08,0,0-.19-.08-.13-.39-.13-.75-.25-.67-.19-.29-.27-.2-.36-.17-.12-.11-.07-.36,0-.09,0,0,.6.08h.18l.08-.07,0,0,.1-.14,0,0,.09,0,0-.08v-.1l0-.09.07-.08.09-.07h.11l.12.1-.07-.06Zm13.31,55,.14.06.75.58.46.81.31.4h.29l.11.17.09.07.09,0,.15.07-.16.07h-.06l-.18.11-.39-.14-.67-.36-.68-.21-.34,0-.33.09-.36.18-.16,0-.33-.16-.09,0v0L230,142l.11-.15v-.11l0,0,0-.17v0l0-.09-.05-.07-.07-.08,0-.07,0-.11v-.11l.06-.09.15,0-.09,0Zm-3.13,5.77-.14-.06-.75-.58-.47-.81-.31-.4h-.29l-.11-.17-.09-.06-.09,0-.15-.07.16-.07h.06l.18-.1.39.14.67.35.68.21.35,0,.32-.09.36-.18.16,0,.33.16.1,0v.06l-.43.42-.1.15v.11l0,0,.05.16v0l0,.09.05.08.07.07.05.08,0,.1v.12l-.06.09-.15,0,.09,0Zm5.17-5.17-.08.14-.61.71-.84.42-.42.29,0,.29-.18.1-.07.08,0,.1-.08.14-.07-.16v-.06l-.09-.18.16-.38.39-.65.24-.67.05-.34-.07-.33-.17-.37,0-.16.18-.32,0-.09h.06l.4.45.15.11h.1l0,0,.16,0h.05l.09,0,.08,0,.08-.07.08,0,.1,0h.12l.09.07,0,.15,0-.09ZM218.31,88.66l-.15,0-.84-.43-.6-.72-.38-.34-.29,0-.14-.14-.09,0h-.11l-.15,0,.14-.1h.06l.16-.13.41.06.72.23.71.09.34,0,.31-.15.32-.24.15-.06.35.1h.1v.06l-.34.49-.08.17,0,.1,0,0,.08.15v.14l.06.07.08.06.07.06,0,.1,0,.12,0,.1-.15.05.09,0Zm12.37,54.11-.22,0v.1l.1.13.06.12-.12,0h-.1l-.1,0-.11,0-.08,0,0,.09v.22l0,0,0,0h-.15l-.05,0-.14-.18,0-.05.1-.22.26-.23.31-.2.26-.1h0l0,0,0,0v.05h-.12l0,.06v.06Zm-12-56.72-.22,0v.1l.1.12,0,.12-.12,0h-.09l-.1,0-.11,0-.08,0,0,.08v.22l0,0,0,0H218l0,0-.14-.18,0,0,.1-.21.26-.24.31-.19.26-.11h0l0,0,0,0v.06h-.13l.05,0v.07Zm9.91,60.28-.13.08-.89.32-.94,0-.51,0L226,147h-.2l-.1,0-.08.07-.14.08,0-.18,0,0v-.21l.33-.25.66-.38.54-.46.21-.28.1-.32,0-.39.06-.16.31-.19.08-.06,0,0,.13.58.07.17.1.05h0l.17,0,0,0,.06.06h.09l.1,0h.1l.1,0,.09.06.05.1-.06.14,0-.08Zm-1.56-2.73.13-.08.88-.33.94.05.51-.06.16-.24h.2l.1,0,.08-.06.13-.09,0,.18,0,0v.2l-.33.26-.66.38-.54.46-.2.28-.1.32,0,.39-.06.16-.31.19-.08.06,0,0-.13-.59-.07-.17-.1,0h-.05l-.16-.05,0,0-.06-.07h-.1l-.1,0h-.09l-.1,0-.1-.06,0-.1.06-.15,0,.09Zm0,3.31v-.15l.22-.92.57-.75.23-.45-.11-.27.12-.16,0-.11v-.26l.14.12,0,0,.17.12,0,.41-.05.76.08.7.12.33.21.26.31.25.09.14v.46h-.05l-.56-.22-.18,0-.1.05,0,0-.13.11,0,0h-.09l0,.08,0,.09,0,.08-.09.06-.1,0-.11,0-.09-.13.05.08Zm2.23-1.17.1-.2-.08,0h-.29l.1-.08,0-.08,0-.09,0-.1,0-.09-.07-.06-.09-.05-.06-.05H229v-.05l.07-.13.06,0,.23,0h.07l.12.2.06.34v.37l-.05.27,0,0,0,0h0l-.05,0v0l.06-.08h-.1Zm4.12-2.51-.16,0-.9-.29-.7-.62-.43-.27-.28.08-.16-.12-.1,0h-.1l-.16,0,.12-.12.06,0,.13-.16h.41l.76.11.71,0,.33-.09.28-.19.28-.29.15-.08.36,0h.1v.06l-.27.54,0,.17,0,.1,0,0,.1.14,0,.05v.09l.07.06.09,0,.07.06.06.09,0,.11,0,.1-.13.08.08-.05Zm-.92-5.13.15,0,.9.29.71.61.43.27.28-.08.16.12.1,0h.1l.16,0-.12.12-.06,0-.13.16h-.41l-.76-.11-.71,0-.33.09-.28.19-.28.29-.14.08-.36,0h-.1v-.05l.26-.54,0-.18,0-.1,0,0-.1-.14V139l-.07-.05-.09,0-.08-.05-.05-.09,0-.11,0-.11.14-.08-.08,0Zm-2.05,2.61.1-.12.74-.58.91-.25.46-.2.09-.28.19-.06.08-.07.06-.09.1-.11,0,.17v0l.06.2-.23.34-.52.56-.37.61-.11.32v.34l.08.39v.17l-.23.27-.06.09-.05,0-.3-.51-.13-.14-.1,0H231l-.08-.05-.08,0-.09.05-.09,0h-.11l-.11,0-.07-.08v-.07Zm2.48.46.2-.1,0-.09-.14-.09-.09-.09H233l.09,0,.08-.06.1-.05.06-.06v-.09l0-.09,0-.07,0,0,0,0,0,0,.13-.06.06,0,.2.12,0,0,0,.24-.17.3-.22.29-.21.19H233l0,0,0,0h0l.09,0-.06,0,0,0Zm-.9,3.2-.23,0v.1l.09.13.06.11-.12,0h-.1l-.09,0h-.11l-.08,0,0,.08v.26l0,0h-.15l-.05,0-.15-.18,0-.06.11-.21.26-.23.3-.2.27-.11,0,0h0l0,0v.06H232l.05.05v.07Zm-4-3.5.16.12.07.18-.05.13h-.2l-.09-.09,0-.14,0-.13Zm.52-1.48.16.13.07.18-.06.13h-.19l-.09-.1,0-.13,0-.13Zm3,3.84.15.13.07.17-.05.14-.19,0-.1-.09,0-.14,0-.13Zm-1.16,3.21.15.13.07.18,0,.13h-.19l-.1-.1,0-.14,0-.12Zm-8.13-62.12.16.13.07.18-.05.13h-.2l-.09-.09,0-.14,0-.13Zm-.38,2.29.16.13.07.18,0,.13h-.2L221.8,87l0-.14,0-.13Z" fill="#02bbe9"/></svg>