<svg width="206" height="46" viewBox="0 0 206 46" fill="none" xmlns="http://www.w3.org/2000/svg">
<g clip-path="url(#clip0_2314_6001)">
<path d="M40.2942 36.6943L35.9996 43.7859H34.9245L34.5245 38.1524L31.0327 43.7859H29.9576L29.498 36.6943H30.4937L30.8625 42.4782L34.4139 36.6943H35.3585L35.7471 42.4895L39.2787 36.6943H40.2942Z" fill="white"/>
<path d="M45.6214 38.8328C45.9419 39.1449 46.0809 39.5817 46.0412 40.149C46.027 40.3448 45.9929 40.5547 45.9362 40.7759L45.1278 43.7856H44.152L44.9604 40.7759C45.0058 40.5944 45.0342 40.444 45.0427 40.3306C45.0682 39.9788 44.9803 39.7094 44.7846 39.5193C44.5888 39.3293 44.2825 39.2357 43.8712 39.2357C43.3436 39.2357 42.8982 39.3803 42.5351 39.6668C42.172 39.9533 41.9139 40.3816 41.7607 40.949L40.9948 43.7856H40.019L42.0472 36.2686H43.023L42.2713 39.0456C42.7847 38.5917 43.4315 38.3676 44.2172 38.3676C44.8328 38.3676 45.3008 38.5237 45.6214 38.8328Z" fill="white"/>
<path d="M48.1065 41.406L48.1008 41.4656C48.0668 41.9648 48.1802 42.3449 48.4469 42.6059C48.7135 42.8668 49.1305 42.9945 49.6978 42.9945C50.0297 42.9945 50.3446 42.9378 50.6424 42.8271C50.9402 42.7165 51.1955 42.5662 51.4055 42.3761L51.7742 43.0739C51.4934 43.3179 51.1587 43.5051 50.7701 43.6412C50.3814 43.7774 49.9786 43.8426 49.5588 43.8426C49.0312 43.8426 48.5802 43.749 48.2086 43.559C47.837 43.3689 47.5562 43.0994 47.3718 42.7477C47.1874 42.396 47.1108 41.9847 47.142 41.5109C47.1846 40.9096 47.3519 40.3706 47.6469 39.8912C47.942 39.4119 48.3306 39.0374 48.8128 38.7679C49.295 38.4985 49.8255 38.3623 50.4013 38.3623C51.1331 38.3623 51.7033 38.5694 52.1089 38.9864C52.5174 39.4005 52.6961 39.9678 52.6451 40.6827C52.6309 40.8982 52.5883 41.1393 52.5231 41.4032H48.1065V41.406ZM49.0369 39.582C48.6738 39.8515 48.4128 40.2231 48.2597 40.6968H51.7317C51.7912 40.2174 51.692 39.843 51.4281 39.5764C51.1672 39.3097 50.7899 39.1764 50.3048 39.1764C49.8198 39.1764 49.4028 39.3126 49.0369 39.582Z" fill="white"/>
<path d="M56.3182 38.5686C56.6727 38.4324 57.0982 38.3672 57.5918 38.3672L57.3422 39.3089C57.2826 39.3033 57.1975 39.2976 57.0897 39.2976C55.9721 39.2976 55.2544 39.899 54.9339 41.1017L54.2077 43.7851H53.2319L54.6729 38.4154H55.6062L55.3991 39.2153C55.6572 38.9175 55.9636 38.7019 56.3182 38.5658V38.5686Z" fill="white"/>
<path d="M58.4146 41.406L58.4089 41.4656C58.3749 41.9648 58.4883 42.3449 58.755 42.6059C59.0216 42.8668 59.4386 42.9945 60.0059 42.9945C60.3378 42.9945 60.6527 42.9378 60.9505 42.8271C61.2484 42.7165 61.5037 42.5662 61.7136 42.3761L62.0823 43.0739C61.8015 43.3179 61.4668 43.5051 61.0782 43.6412C60.6895 43.7774 60.2867 43.8426 59.8669 43.8426C59.3393 43.8426 58.8883 43.749 58.5167 43.559C58.1451 43.3689 57.8643 43.0994 57.6799 42.7477C57.4955 42.396 57.4189 41.9847 57.4501 41.5109C57.4927 40.9096 57.66 40.3706 57.9551 39.8912C58.2501 39.4119 58.6387 39.0374 59.1209 38.7679C59.6031 38.4985 60.1336 38.3623 60.7094 38.3623C61.4412 38.3623 62.0114 38.5694 62.417 38.9864C62.8255 39.4005 63.0042 39.9678 62.9532 40.6827C62.939 40.8982 62.8964 41.1393 62.8312 41.4032H58.4146V41.406ZM59.345 39.582C58.9819 39.8515 58.7209 40.2231 58.5678 40.6968H62.0398C62.0993 40.2174 62.0001 39.843 61.7363 39.5764C61.4753 39.3097 61.098 39.1764 60.613 39.1764C60.1279 39.1764 59.7109 39.3126 59.345 39.582Z" fill="white"/>
<path d="M68.8218 36.6943H71.6046C72.3165 36.6943 72.9179 36.8135 73.4115 37.0546C73.905 37.2957 74.271 37.6333 74.5093 38.0673C74.7475 38.5041 74.844 39.0147 74.8043 39.6019C74.7475 40.4273 74.5121 41.1563 74.0979 41.7889C73.6838 42.4243 73.1335 42.915 72.4414 43.2639C71.7492 43.6128 70.9635 43.7859 70.0841 43.7859H66.9043L68.8218 36.6943ZM70.1749 42.9037C70.8585 42.9037 71.4656 42.7647 71.9903 42.4895C72.5179 42.2115 72.9349 41.8286 73.2441 41.3407C73.5533 40.85 73.7292 40.2912 73.7717 39.6643C73.8171 39.009 73.6441 38.4984 73.2498 38.1297C72.8555 37.7609 72.2513 37.5765 71.44 37.5765H69.5906L68.1524 42.9065H70.1721L70.1749 42.9037Z" fill="white"/>
<path d="M76.9464 38.4157H77.9222L76.4812 43.7854H75.5054L76.9464 38.4157ZM77.3634 37.2102C77.2556 37.0967 77.2073 36.9577 77.2187 36.796C77.2329 36.606 77.3095 36.4471 77.4513 36.3138C77.5931 36.1805 77.7633 36.1152 77.9675 36.1152C78.1434 36.1152 78.2881 36.172 78.3987 36.2826C78.5093 36.3932 78.5604 36.5265 78.5491 36.6826C78.5349 36.8925 78.4554 37.0598 78.3165 37.1903C78.1746 37.318 77.9988 37.3832 77.7888 37.3832C77.613 37.3832 77.4711 37.3265 77.3634 37.2102Z" fill="white"/>
<path d="M84.886 38.416L81.0877 43.7857H80.0921L79.1787 38.416H80.1545L80.858 42.722L83.9017 38.416H84.886Z" fill="white"/>
<path d="M85.6602 41.406L85.6545 41.4656C85.6205 41.9648 85.7339 42.3449 86.0006 42.6059C86.2672 42.8668 86.6842 42.9945 87.2515 42.9945C87.5834 42.9945 87.8983 42.9378 88.1961 42.8271C88.494 42.7165 88.7493 42.5662 88.9592 42.3761L89.3279 43.0739C89.0471 43.3179 88.7124 43.5051 88.3238 43.6412C87.9352 43.7774 87.5324 43.8426 87.1125 43.8426C86.5849 43.8426 86.1339 43.749 85.7623 43.559C85.3907 43.3689 85.1099 43.0994 84.9255 42.7477C84.7411 42.396 84.6645 41.9847 84.6957 41.5109C84.7383 40.9096 84.9056 40.3706 85.2007 39.8912C85.4957 39.4119 85.8843 39.0374 86.3665 38.7679C86.8487 38.4985 87.3792 38.3623 87.955 38.3623C88.6869 38.3623 89.257 38.5694 89.6626 38.9864C90.0711 39.4005 90.2498 39.9678 90.1988 40.6827C90.1846 40.8982 90.142 41.1393 90.0768 41.4032H85.6602V41.406ZM86.5878 39.582C86.2247 39.8515 85.9637 40.2231 85.8105 40.6968H89.2825C89.3421 40.2174 89.2428 39.843 88.979 39.5764C88.7181 39.3097 88.3408 39.1764 87.8557 39.1764C87.3707 39.1764 86.9537 39.3126 86.5878 39.582Z" fill="white"/>
<path d="M94.1814 38.5686C94.536 38.4324 94.9615 38.3672 95.4551 38.3672L95.2055 39.3089C95.1459 39.3033 95.0608 39.2976 94.953 39.2976C93.8354 39.2976 93.1177 39.899 92.7972 41.1017L92.071 43.7851H91.0952L92.5362 38.4154H93.4695L93.2624 39.2153C93.5205 38.9175 93.8269 38.7019 94.1814 38.5658V38.5686Z" fill="white"/>
<path d="M96.0024 43.6746C95.6082 43.5583 95.3046 43.4108 95.0947 43.2292L95.5855 42.4605C95.784 42.6307 96.0478 42.764 96.374 42.8605C96.7031 42.9569 97.0492 43.008 97.4151 43.008C97.8746 43.008 98.232 42.9399 98.4816 42.8009C98.7313 42.6619 98.8646 42.469 98.8816 42.2194C98.8958 42.018 98.8107 41.8705 98.6235 41.7826C98.4363 41.6946 98.1441 41.6067 97.7441 41.5188C97.3697 41.4365 97.0662 41.3542 96.8336 41.272C96.5981 41.1869 96.4024 41.0536 96.2464 40.8663C96.0904 40.682 96.0223 40.4295 96.045 40.1118C96.0705 39.7601 96.1897 39.4537 96.4081 39.1899C96.6265 38.9261 96.9243 38.7247 97.3044 38.5829C97.6846 38.441 98.1157 38.3701 98.6036 38.3701C98.961 38.3701 99.3071 38.4155 99.6418 38.5006C99.9737 38.5885 100.243 38.7077 100.45 38.8552L100.011 39.6239C99.8092 39.4821 99.5737 39.3743 99.3014 39.3034C99.0291 39.2324 98.7454 39.1956 98.4561 39.1956C98.0164 39.1956 97.6732 39.2693 97.4264 39.414C97.1796 39.5587 97.0463 39.7544 97.0293 39.9955C97.0151 40.2111 97.1002 40.3643 97.2903 40.455C97.4803 40.5458 97.7782 40.6366 98.1866 40.7245C98.5526 40.8068 98.8532 40.8862 99.083 40.9685C99.3156 41.0507 99.5057 41.1812 99.6588 41.3627C99.812 41.5443 99.8773 41.7911 99.8546 42.1031C99.8177 42.6506 99.5624 43.0789 99.0887 43.3852C98.6178 43.6916 98.0079 43.8448 97.2647 43.8448C96.8166 43.8448 96.3967 43.788 96.0024 43.6717V43.6746Z" fill="white"/>
<path d="M102.444 38.4157H103.42L101.979 43.7854H101.003L102.444 38.4157ZM102.864 37.2102C102.756 37.0967 102.708 36.9577 102.72 36.796C102.734 36.606 102.81 36.4471 102.952 36.3138C103.094 36.1805 103.264 36.1152 103.468 36.1152C103.644 36.1152 103.789 36.172 103.9 36.2826C104.01 36.3932 104.061 36.5265 104.05 36.6826C104.036 36.8925 103.956 37.0598 103.817 37.1903C103.676 37.318 103.5 37.3832 103.29 37.3832C103.114 37.3832 102.972 37.3265 102.864 37.2102Z" fill="white"/>
<path d="M105.744 42.0721C105.715 42.1742 105.698 42.2678 105.693 42.3557C105.678 42.5713 105.724 42.7387 105.834 42.8521C105.945 42.9656 106.118 43.0252 106.356 43.0252C106.64 43.0252 106.904 42.9401 107.145 42.7727L107.295 43.513C106.955 43.7371 106.529 43.8478 106.022 43.8478C105.596 43.8478 105.259 43.7286 105.015 43.4875C104.771 43.2492 104.663 42.9174 104.694 42.5004C104.703 42.3586 104.728 42.2224 104.762 42.0947L105.542 39.2184H104.629L104.836 38.4185H105.761L106.076 37.2441H107.051L106.737 38.4185H108.28L108.061 39.2184H106.518L105.741 42.0749L105.744 42.0721Z" fill="white"/>
<path d="M114.832 38.416L110.597 44.3729C110.214 44.9147 109.859 45.2891 109.533 45.4962C109.207 45.7061 108.829 45.8111 108.404 45.8111C108.14 45.8111 107.885 45.7685 107.641 45.6834C107.397 45.5983 107.213 45.482 107.085 45.3345L107.644 44.614C107.871 44.858 108.166 44.9799 108.532 44.9799C108.761 44.9799 108.968 44.9204 109.153 44.7984C109.337 44.6764 109.536 44.4722 109.743 44.18L110.046 43.7545L109.119 38.416H110.095L110.829 42.7106L113.842 38.416H114.826H114.832Z" fill="white"/>
<path d="M118.352 43.2375C117.91 42.8177 117.717 42.239 117.768 41.4958C117.782 41.2717 117.827 41.0164 117.904 40.7271L118.988 36.6963H120.003L118.911 40.7186C118.849 40.9484 118.809 41.1725 118.792 41.388C118.755 41.9071 118.877 42.3014 119.158 42.5681C119.436 42.8347 119.861 42.968 120.429 42.968C121.064 42.968 121.586 42.7865 121.994 42.4206C122.403 42.0546 122.712 41.4845 122.922 40.7101L124.005 36.6991H125.001L123.903 40.781C123.623 41.8079 123.177 42.5794 122.567 43.0957C121.957 43.6119 121.194 43.8701 120.275 43.8701C119.436 43.8701 118.795 43.6602 118.355 43.2432L118.352 43.2375Z" fill="white"/>
<path d="M130.978 38.8323C131.298 39.1443 131.437 39.5812 131.398 40.1485C131.383 40.3442 131.349 40.5541 131.293 40.7754L130.484 43.785H129.508L130.317 40.7754C130.362 40.5938 130.391 40.4435 130.399 40.33C130.425 39.9783 130.337 39.7088 130.141 39.5188C129.945 39.3287 129.639 39.2351 129.228 39.2351C128.7 39.2351 128.255 39.3798 127.892 39.6663C127.528 39.9528 127.27 40.3811 127.117 40.9484L126.351 43.785H125.375L126.816 38.4153H127.75L127.568 39.1046C128.09 38.611 128.757 38.3643 129.571 38.3643C130.186 38.3643 130.654 38.5203 130.975 38.8295L130.978 38.8323Z" fill="white"/>
<path d="M134.076 38.4157H135.052L133.611 43.7854H132.635L134.076 38.4157ZM134.496 37.2102C134.388 37.0967 134.34 36.9577 134.351 36.796C134.365 36.606 134.442 36.4471 134.584 36.3138C134.725 36.1805 134.896 36.1152 135.1 36.1152C135.276 36.1152 135.42 36.172 135.531 36.2826C135.642 36.3932 135.693 36.5265 135.681 36.6826C135.667 36.8925 135.588 37.0598 135.449 37.1903C135.307 37.318 135.131 37.3832 134.921 37.3832C134.745 37.3832 134.603 37.3265 134.496 37.2102Z" fill="white"/>
<path d="M137.372 42.0721C137.343 42.1742 137.326 42.2678 137.321 42.3557C137.306 42.5713 137.352 42.7387 137.462 42.8521C137.573 42.9656 137.746 43.0252 137.984 43.0252C138.268 43.0252 138.532 42.9401 138.773 42.7727L138.923 43.513C138.583 43.7371 138.157 43.8478 137.65 43.8478C137.224 43.8478 136.887 43.7286 136.643 43.4875C136.399 43.2492 136.291 42.9174 136.322 42.5004C136.331 42.3586 136.356 42.2224 136.39 42.0947L137.17 39.2184H136.257L136.464 38.4185H137.389L137.704 37.2441H138.679L138.364 38.4185H139.908L139.689 39.2184H138.146L137.369 42.0749L137.372 42.0721Z" fill="white"/>
<path d="M141.286 41.406L141.28 41.4656C141.246 41.9648 141.36 42.3449 141.627 42.6059C141.893 42.8668 142.31 42.9945 142.878 42.9945C143.209 42.9945 143.524 42.9378 143.822 42.8271C144.12 42.7165 144.375 42.5662 144.585 42.3761L144.954 43.0739C144.673 43.3179 144.338 43.5051 143.95 43.6412C143.561 43.7774 143.158 43.8426 142.739 43.8426C142.211 43.8426 141.76 43.749 141.388 43.559C141.017 43.3689 140.736 43.0994 140.551 42.7477C140.367 42.396 140.291 41.9847 140.322 41.5109C140.364 40.9096 140.532 40.3706 140.827 39.8912C141.122 39.4119 141.51 39.0374 141.992 38.7679C142.475 38.4985 143.005 38.3623 143.581 38.3623C144.313 38.3623 144.883 38.5694 145.289 38.9864C145.697 39.4005 145.876 39.9678 145.825 40.6827C145.811 40.8982 145.768 41.1393 145.703 41.4032H141.286V41.406ZM142.217 39.582C141.853 39.8515 141.593 40.2231 141.439 40.6968H144.911C144.971 40.2174 144.872 39.843 144.608 39.5764C144.347 39.3097 143.97 39.1764 143.485 39.1764C142.999 39.1764 142.582 39.3126 142.217 39.582Z" fill="white"/>
<path d="M147.155 43.6746C146.761 43.5583 146.457 43.4108 146.248 43.2292L146.738 42.4605C146.937 42.6307 147.201 42.764 147.527 42.8605C147.853 42.9569 148.202 43.008 148.568 43.008C149.027 43.008 149.385 42.9399 149.634 42.8009C149.884 42.6619 150.017 42.469 150.034 42.2194C150.049 42.018 149.964 41.8705 149.776 41.7826C149.589 41.6946 149.297 41.6067 148.897 41.5188C148.523 41.4365 148.219 41.3542 147.986 41.272C147.751 41.1869 147.555 41.0536 147.399 40.8663C147.243 40.682 147.175 40.4295 147.198 40.1118C147.223 39.7601 147.342 39.4537 147.561 39.1899C147.779 38.9261 148.077 38.7247 148.457 38.5829C148.837 38.441 149.269 38.3701 149.756 38.3701C150.114 38.3701 150.46 38.4155 150.795 38.5006C151.127 38.5885 151.396 38.7077 151.603 38.8552L151.163 39.6239C150.962 39.4821 150.727 39.3743 150.454 39.3034C150.182 39.2324 149.898 39.1956 149.609 39.1956C149.169 39.1956 148.826 39.2693 148.579 39.414C148.332 39.5587 148.199 39.7544 148.182 39.9955C148.168 40.2111 148.253 40.3643 148.443 40.455C148.633 40.5458 148.931 40.6366 149.339 40.7245C149.705 40.8068 150.006 40.8862 150.236 40.9685C150.468 41.0507 150.658 41.1812 150.812 41.3627C150.965 41.5443 151.03 41.7911 151.007 42.1031C150.971 42.6506 150.715 43.0789 150.242 43.3852C149.771 43.6916 149.161 43.8448 148.418 43.8448C147.969 43.8448 147.55 43.788 147.155 43.6717V43.6746Z" fill="white"/>
<path d="M32.3712 1.82715H25.4187C25.0102 1.82715 24.5734 2.02571 24.25 2.36043L13.6467 13.3126L8.91244 2.36043C8.76777 2.02571 8.43873 1.82715 8.03026 1.82715H1.07772C0.0650506 1.82715 -0.834155 2.96747 -0.476742 3.79576L6.72541 20.458L4.45329 28.9395C4.26891 29.6316 4.67738 30.1904 5.36951 30.1904H12.8752C13.5673 30.1904 14.2765 29.6288 14.4637 28.9395L16.7358 20.458L32.8705 3.79576C33.6732 2.96747 33.3867 1.82715 32.3741 1.82715H32.3712Z" fill="white"/>
<path d="M59.1204 7.29575C58.1134 5.41792 56.5873 3.96557 54.5478 2.93872C52.5054 1.91186 50.0716 1.39844 47.2463 1.39844C43.8963 1.39844 40.8753 2.10192 38.1805 3.51171C35.4857 4.92151 33.3299 6.86742 31.7159 9.35513C30.099 11.8428 29.1885 14.6341 28.9786 17.7288C28.8027 20.3385 29.2679 22.6078 30.377 24.5367C31.4833 26.4684 33.1455 27.9633 35.3609 29.0242C37.5735 30.0851 40.1803 30.6155 43.1815 30.6155C47.5584 30.6155 51.3935 29.5802 54.6953 27.5094C55.1576 27.2201 55.3137 26.6216 55.0357 26.1564L52.3437 21.6604C52.0572 21.1838 51.436 21.0448 50.9623 21.3398C50.1964 21.8192 49.3738 22.1993 48.4944 22.4773C47.2832 22.8602 46.0493 23.0503 44.7927 23.0503C41.02 23.0503 38.9918 21.6462 38.6996 18.8436H58.7403C59.1856 18.8436 59.5828 18.5486 59.6962 18.1174C59.8239 17.6295 59.9345 17.1558 60.0281 16.702C60.2153 15.8056 60.3316 14.9745 60.3855 14.2029C60.4139 13.7802 60.4224 13.3661 60.4167 12.9605C60.4423 10.8415 60.0111 8.95233 59.1232 7.29575H59.1204ZM42.183 9.65865C43.3205 8.80483 44.6934 8.3765 46.2989 8.3765C47.9044 8.3765 49.1667 8.80483 50.0858 9.65865C51.002 10.5096 51.3935 11.6812 51.263 13.1732H39.5988C40.1888 11.6812 41.0483 10.5096 42.183 9.65865Z" fill="white"/>
<path d="M132.271 2.44553C132.115 2.07393 131.752 1.82715 131.267 1.82715H124.104C123.619 1.82715 123.126 2.0711 122.768 2.44553C122.55 2.67246 122.385 2.95045 122.306 3.24545L120.405 10.337H109.337L111.237 3.24545C111.317 2.94761 111.3 2.67246 111.203 2.44553C111.047 2.07393 110.684 1.82715 110.199 1.82715H103.037C102.552 1.82715 102.058 2.0711 101.701 2.44553C101.482 2.67246 101.318 2.95045 101.238 3.24545L94.3965 28.775C94.3171 29.0728 94.3341 29.3479 94.4305 29.5749C94.5866 29.9465 94.9496 30.1933 95.4347 30.1933H102.597C103.082 30.1933 103.576 29.9493 103.933 29.5749C104.152 29.3479 104.316 29.07 104.396 28.775L107.056 18.8468H118.125L115.464 28.775C115.385 29.0728 115.402 29.3479 115.498 29.5749C115.654 29.9465 116.017 30.1933 116.502 30.1933H123.665C124.15 30.1933 124.643 29.9493 125.001 29.5749C125.219 29.3479 125.384 29.07 125.463 28.775L132.305 3.24545C132.384 2.94761 132.367 2.67246 132.271 2.44553Z" fill="white"/>
<path d="M98.2631 2.44524C98.1071 2.07364 97.744 1.82686 97.2589 1.82686H90.0965C89.6114 1.82686 89.1178 2.07081 88.7604 2.44524C88.542 2.67217 88.3775 2.95016 88.2981 3.24516L87.7591 5.25632C86.3323 2.68635 83.5666 1.40137 79.4649 1.40137C76.6821 1.40137 74.0498 2.11336 71.5677 3.54017C69.0857 4.96699 67.0405 6.92425 65.4321 9.40912C63.8238 11.8968 62.8764 14.671 62.587 17.7317C62.3374 20.3755 62.6778 22.6703 63.6082 24.619C64.5386 26.5678 65.8661 28.0542 67.5965 29.081C69.3268 30.1079 71.233 30.6213 73.3208 30.6213C76.5176 30.6213 79.3429 29.5803 81.7994 27.4982L81.4562 28.7775C81.3767 29.0753 81.3937 29.3505 81.4902 29.5774C81.6462 29.949 82.0093 30.1958 82.4944 30.1958H89.6568C90.1419 30.1958 90.6354 29.9519 90.9928 29.5774C91.2113 29.3505 91.3758 29.0725 91.4552 28.7775L98.2971 3.248C98.3765 2.95016 98.3595 2.67501 98.2631 2.44808V2.44524ZM73.715 21.2009C72.847 20.245 72.4953 18.9316 72.6513 17.2609C72.8754 14.8951 73.681 12.9833 75.0709 11.5224C76.4609 10.0615 78.1458 9.3297 80.1286 9.3297C81.7994 9.3297 83.0645 9.81759 83.9297 10.7906C84.7948 11.7635 85.1494 13.0854 84.9906 14.7561C84.7722 17.0878 83.9666 18.9827 82.5766 20.4435C81.1867 21.9044 79.5017 22.6334 77.5189 22.6334C75.8482 22.6334 74.5802 22.1569 73.715 21.1981V21.2009Z" fill="white"/>
<path d="M147.102 5.22257C147.451 4.88502 147.913 4.66376 148.373 4.66376H156.103L156.483 3.24545C156.693 2.46255 156.227 1.82715 155.445 1.82715H147.519C147.017 1.82715 146.487 2.12216 146.157 2.57885C145.014 4.17303 141.956 7.8975 137.248 9.64485C136.723 9.83774 136.297 10.3058 136.161 10.8192L134.391 17.4285C134.181 18.2114 134.646 18.8468 135.429 18.8468H143.159L146.58 6.08207C146.668 5.75586 146.861 5.46085 147.108 5.22257H147.102Z" fill="#FF1D49"/>
<path d="M160.216 5.20302C160.043 4.87681 159.705 4.66406 159.257 4.66406H156.103L152.682 17.4288C152.472 18.2117 151.666 18.8471 150.883 18.8471H143.153L140.493 28.7753C140.405 29.1015 140.439 29.3965 140.561 29.6348C140.731 29.9723 141.074 30.1936 141.531 30.1936H152.415C152.874 30.1936 153.337 29.9723 153.686 29.6348C153.933 29.3965 154.125 29.0986 154.213 28.7753L160.295 6.08237C160.386 5.74765 160.346 5.44413 160.216 5.20302Z" fill="#BC56FC"/>
<path d="M152.681 17.4288L156.102 4.66406H148.373C147.913 4.66406 147.451 4.88532 147.102 5.22287C146.855 5.46115 146.662 5.75899 146.574 6.08237L143.153 18.8471H150.883C151.666 18.8471 152.472 18.2117 152.681 17.4288Z" fill="#7100D1"/>
</g>
<path d="M158.412 29.7128C158.087 29.7128 157.81 29.6045 157.582 29.3879C157.365 29.1593 157.257 28.8825 157.257 28.5577C157.257 28.1606 157.383 27.8417 157.636 27.6011C157.888 27.3604 158.189 27.2401 158.538 27.2401C158.863 27.2401 159.134 27.3484 159.35 27.565C159.567 27.7816 159.675 28.0643 159.675 28.4133C159.675 28.666 159.615 28.8946 159.495 29.0991C159.374 29.2916 159.218 29.4421 159.026 29.5503C158.845 29.6586 158.64 29.7128 158.412 29.7128ZM167.635 29.7489C166.36 29.7489 165.271 29.5263 164.369 29.0811C163.478 28.6359 162.792 28.0162 162.311 27.2221C161.842 26.4159 161.607 25.4834 161.607 24.4245C161.607 23.3777 161.788 22.397 162.149 21.4825C162.509 20.556 163.027 19.7439 163.701 19.046C164.387 18.3481 165.199 17.8066 166.137 17.4216C167.088 17.0245 168.159 16.826 169.35 16.826C170.397 16.826 171.323 16.9944 172.129 17.3313C172.936 17.6682 173.555 18.1556 173.988 18.7933L172.689 19.9123C172.316 19.431 171.841 19.064 171.263 18.8113C170.686 18.5586 170.006 18.4323 169.224 18.4323C168.321 18.4323 167.509 18.5887 166.787 18.9016C166.077 19.2024 165.469 19.6295 164.964 20.183C164.459 20.7245 164.074 21.3502 163.809 22.0601C163.544 22.77 163.412 23.5221 163.412 24.3162C163.412 25.0743 163.574 25.7421 163.899 26.3196C164.236 26.8851 164.723 27.3303 165.361 27.6552C166.011 27.9801 166.811 28.1425 167.762 28.1425C168.532 28.1425 169.236 28.0162 169.873 27.7635C170.523 27.5108 171.095 27.1378 171.588 26.6445L172.635 27.8357C172.057 28.4734 171.335 28.9547 170.469 29.2796C169.603 29.5925 168.658 29.7489 167.635 29.7489ZM179.963 29.7489C178.711 29.7489 177.641 29.5263 176.75 29.0811C175.86 28.6359 175.18 28.0162 174.711 27.2221C174.253 26.4159 174.025 25.4834 174.025 24.4245C174.025 23.3777 174.205 22.397 174.566 21.4825C174.927 20.556 175.445 19.7439 176.118 19.046C176.792 18.3481 177.598 17.8066 178.537 17.4216C179.475 17.0245 180.528 16.826 181.695 16.826C182.959 16.826 184.036 17.0486 184.926 17.4938C185.817 17.939 186.49 18.5647 186.948 19.3708C187.417 20.165 187.652 21.0915 187.652 22.1504C187.652 23.1972 187.471 24.1838 187.11 25.1103C186.749 26.0248 186.232 26.831 185.558 27.5289C184.884 28.2268 184.072 28.7742 183.121 29.1713C182.183 29.5564 181.13 29.7489 179.963 29.7489ZM180.125 28.1425C180.992 28.1425 181.78 27.9921 182.49 27.6913C183.2 27.3785 183.801 26.9513 184.294 26.4099C184.788 25.8564 185.167 25.2247 185.432 24.5147C185.696 23.8048 185.829 23.0528 185.829 22.2586C185.829 21.5006 185.666 20.8388 185.341 20.2733C185.016 19.6957 184.535 19.2445 183.897 18.9196C183.26 18.5947 182.478 18.4323 181.551 18.4323C180.673 18.4323 179.879 18.5887 179.169 18.9016C178.471 19.2024 177.869 19.6295 177.364 20.183C176.87 20.7245 176.491 21.3502 176.227 22.0601C175.962 22.77 175.83 23.5221 175.83 24.3162C175.83 25.0743 175.992 25.7421 176.317 26.3196C176.654 26.8851 177.135 27.3303 177.761 27.6552C178.399 27.9801 179.187 28.1425 180.125 28.1425ZM188.678 29.6045L191.204 16.9704H192.666L196.457 26.5362L195.68 26.5182L203.098 16.9704H204.651L202.124 29.6045H200.391L202.395 19.6416L202.846 19.6777L196.258 28.0703H195.428L192.017 19.6416L192.396 19.6957L190.41 29.6045H188.678Z" fill="white"/>
<defs>
<clipPath id="clip0_2314_6001">
<rect width="160.907" height="45" fill="white" transform="translate(0 0.810547)"/>
</clipPath>
</defs>
</svg>
